<svg id="Lag_1" data-name="Lag 1" xmlns="http://www.w3.org/2000/svg" width="405" height="74.63" viewBox="0 0 405 74.63"><defs><style>.cls-1{fill:lime;fill-rule:evenodd;}.cls-2{fill:#fff;}</style></defs><title>Artboard 5</title><path class="cls-1" d="M55,47.8A27.06,27.06,0,1,1,28.13,20.52,27.05,27.05,0,0,1,55,47.8ZM32.06,35.09a4.22,4.22,0,1,1-5.61-4V28.93H23.77V26.1h2.68V23.42h2.83V26.1H32v2.83H29.28v2.2A4.21,4.21,0,0,1,32.06,35.09Zm-2.51,0a1.71,1.71,0,1,0-1.71,1.7A1.71,1.71,0,0,0,29.55,35.09Zm11.24,28.5H15v3H40.79Zm-.14-3.7.07,1.37H14.94v0h-.06c-3.14-2.79-8-8.54-7.74-13.6a6.21,6.21,0,0,1,4.51-5.9,7.22,7.22,0,0,1,6.14.91,5.43,5.43,0,0,1,2.85-2,6.37,6.37,0,0,1,7.16,2,6.57,6.57,0,0,1,7.13-2.09,5.53,5.53,0,0,1,3,2.08,7.32,7.32,0,0,1,6.28-.9,6.21,6.21,0,0,1,4.42,6C48.81,52.85,43.9,58.51,40.72,61.26Zm-17-3c-3.06-3-6.89-7.36-6.89-11.44,0-.31,0-.62,0-.92-2-1.48-3-1.54-4.35-1.19a2.89,2.89,0,0,0-2.22,3.1c-.08,2.53,1.5,6,5.78,10.45ZM36,46.84c0-2-.88-3.63-3-3.63a3.56,3.56,0,0,0-3.66,3.42v.1a3,3,0,0,0,2.18,3.09,21.23,21.23,0,0,1-3.69,4c-.11.1,0,.1-.13,0a18.76,18.76,0,0,1-3.45-4,3.21,3.21,0,0,0,2.27-3.09v0h0a3.29,3.29,0,0,0-.31-1.39h0l-.12-.25L26,45a1.4,1.4,0,0,0-.1-.16l-.16-.23a3.35,3.35,0,0,0-2.38-1.26h-.12a4.2,4.2,0,0,0-1.57.21,2.85,2.85,0,0,0-1.87,2.35,3.26,3.26,0,0,0-.11.83,3.05,3.05,0,0,0,.05.52c.26,2.67,3,6.31,8.1,10.82C33.26,53.32,36,49.54,36,46.84Zm9.53,1.09a2.91,2.91,0,0,0-2.19-3.14C42,44.43,41,44.48,38.94,46c0,.29,0,.58,0,.88,0,4.08-3.83,8.49-6.89,11.44h7.54C44,53.87,45.58,50.45,45.53,47.93Z"/><path class="cls-2" d="M89.58,65.59c1.86,0,3.28-1.09,3.28-2.82V60.69c0-1.73-.93-2.54-3.46-3.69l-7.66-3.52c-4.94-2.25-7.85-3.57-7.85-8.25V40.68a7.58,7.58,0,0,1,7.85-7.38H97.3a.94.94,0,0,1,1,.92v4.43a.94.94,0,0,1-1,.92H85c-1.85,0-3.28,1.1-3.28,2.83v1.74c0,1.84,1.45,2.3,3.62,3.28l7.11,3.52c5.56,2.54,8.21,4.27,8.21,9v4.73c0,4.1-3.91,7.38-8.3,7.38H74.27a.94.94,0,0,1-1-.92V66.51a1,1,0,0,1,1-.92Z"/><path class="cls-2" d="M117,65.47a.9.9,0,0,0,.91,1h3.64a1,1,0,0,1,1,1v3.7a1,1,0,0,1-1,1H106a1,1,0,0,1-1-1v-3.7a1,1,0,0,1,1-1h2.92a.91.91,0,0,0,.91-1V49.14a.91.91,0,0,0-.91-1H107a1,1,0,0,1-1-1V43.5a1,1,0,0,1,1-1h9a1,1,0,0,1,1,1Zm-4-34.78a4.37,4.37,0,1,1-4.31,4.37A4.48,4.48,0,0,1,113,30.69Z"/><path class="cls-2" d="M210.69,58.63a.91.91,0,0,1-.91,1H193.63v.91c0,3.64,3.1,5.89,7.47,5.89h7.52a1,1,0,0,1,1,1v3.76a1,1,0,0,1-1,1h-8.8c-7.65,0-13.35-4-13.35-11.9V52.61c0-6,2.79-10.68,12.51-10.68,8.31,0,11.71,4.19,11.71,9.29Zm-17.06-5c0,.54.18.84.79.84h8.38a.91.91,0,0,0,.91-1V52.19c0-2.73-1.16-4.61-5-4.62-4.24,0-5.1,2.07-5.1,4.74Z"/><path class="cls-2" d="M220,49.16a.9.9,0,0,0-.91-1h-1.94a1,1,0,0,1-1-1V43.51a1,1,0,0,1,1-1H232a7.54,7.54,0,0,1,7.7,7.59v2.31a1,1,0,0,1-1,1H234a.91.91,0,0,1-.91-1V51c0-1.82-1.39-2.79-3.22-2.79h-1.82a.91.91,0,0,0-.91,1V65.48a.91.91,0,0,0,.91,1h5.59a1,1,0,0,1,1,1v3.71a1,1,0,0,1-1,1H217.13a1,1,0,0,1-1-1v-3.7a1,1,0,0,1,1-1h1.94a.9.9,0,0,0,.91-1Z"/><path class="cls-2" d="M281.17,49.17a.91.91,0,0,0-.91-1h-1.94a1,1,0,0,1-1-1v-3.7a1,1,0,0,1,1-1h14.81a7.54,7.54,0,0,1,7.7,7.59v2.31a1,1,0,0,1-1,1h-4.67a.9.9,0,0,1-.91-1V51c0-1.82-1.4-2.8-3.22-2.8h-1.82a.91.91,0,0,0-.91,1V65.49a.91.91,0,0,0,.92,1h5.58a1,1,0,0,1,1,1v3.7a1,1,0,0,1-1,1H278.31a1,1,0,0,1-1-1v-3.7a1,1,0,0,1,1-1h1.94a.9.9,0,0,0,.91-1Z"/><path class="cls-2" d="M319.84,51.23c0-2.24-2.36-3.64-5.46-3.64s-8.38.79-8.8.79-.6-.18-.6-.67V43.64c0-.36,0-.84.66-1A72.93,72.93,0,0,1,314.2,42c7.16,0,12.81,2.12,12.8,9.35V64.89a1.4,1.4,0,0,0,1.4,1.58h.24a1,1,0,0,1,1,1v3.7a1,1,0,0,1-1,1h-2.19c-3.21,0-4.73-1-5.4-3.28-.12-.36-.3-.48-.48-.48a.57.57,0,0,0-.55.43c-.91,2.3-2.43,3.33-6.25,3.33h-2.49a7.67,7.67,0,0,1-8-7.65V63.19c0-4.49,3.34-7,7.71-7.95l8.86-1.88Zm-4.61,15.24c4.12,0,4.61-2.31,4.61-6.14v-2L313,60a3.29,3.29,0,0,0-2.61,3.22v.61c0,1.63,1.4,2.61,3.22,2.61Z"/><path class="cls-2" d="M363.13,39.47a4.37,4.37,0,1,0-4.31-4.38A4.47,4.47,0,0,0,363.13,39.47Z"/><path class="cls-2" d="M371.68,66.47H368a.91.91,0,0,1-.91-1v-22a1,1,0,0,0-1-1H345.29a1,1,0,0,1-1-1V41A4.07,4.07,0,0,1,348.38,37h2a1,1,0,0,0,1-1V32.24a.91.91,0,0,0-.91-.91h-3.52c-6,0-9.77,2.37-9.77,8.19v2.12a.92.92,0,0,1-.92.92h-3a1,1,0,0,0-1,1v3.7a1,1,0,0,0,1,1h3a1,1,0,0,1,1,1v22a1,1,0,0,0,1,1h5.21a1,1,0,0,0,1-1v-22a.9.9,0,0,1,.9-.91h13.84a.92.92,0,0,1,.91,1V65.5a.9.9,0,0,1-.91,1h-2.91a1,1,0,0,0-1,1v3.7a1,1,0,0,0,1,1h15.53a1,1,0,0,0,1-1v-3.7A1,1,0,0,0,371.68,66.47Z"/><path class="cls-2" d="M143.11,57.16a1.55,1.55,0,0,1-.43-.91,1.5,1.5,0,0,1,.43-.91l8.8-11a1.76,1.76,0,0,0,.42-1c0-.49-.42-.79-1.09-.79h-4.37c-1.45,0-1.88.37-2.91,1.7l-6.62,8.38a5.2,5.2,0,0,0-.35.47h-2.5V37.33a1,1,0,0,0-1-1h-5.28a.91.91,0,0,0-.91,1V71.11a.92.92,0,0,0,.92,1h5.28a1,1,0,0,0,1-1V59.39h2.2A11,11,0,0,0,138,61.28l7.71,9.83a2.21,2.21,0,0,0,2.18,1h5c.66,0,1.09-.3,1.09-.79a1.76,1.76,0,0,0-.43-1Z"/><path class="cls-2" d="M173.47,57.16a1.56,1.56,0,0,1-.43-.91,1.62,1.62,0,0,1,.43-.91l8.8-11a1.8,1.8,0,0,0,.42-1c0-.49-.42-.79-1.09-.79h-4.37c-1.45,0-1.88.36-2.91,1.7l-6.62,8.37-.35.48h-2.5V37.34a1,1,0,0,0-1-1H158.6a.91.91,0,0,0-.91,1V71.12a.91.91,0,0,0,.91,1h5.28a1,1,0,0,0,1-1V59.39h2.2a11,11,0,0,0,1.32,1.89l7.71,9.83a2.23,2.23,0,0,0,2.18,1h5c.67,0,1.09-.3,1.09-.79a1.8,1.8,0,0,0-.42-1Z"/><path class="cls-2" d="M403.73,70.3l-10.5-13.11a1.2,1.2,0,0,1,0-1.82l8.8-11a1.71,1.71,0,0,0,.43-1c0-.49-.42-.79-1.09-.79H397c-1.45,0-1.87.37-2.91,1.7l-6.61,8.38a4.85,4.85,0,0,0-.35.48h-2.51V37.05a1,1,0,0,0-1-1h-5.27a.9.9,0,0,0-.91,1V71.14a.91.91,0,0,0,.91,1h5.28a1,1,0,0,0,1-1V59.42h2.2a11.49,11.49,0,0,0,1.32,1.9l7.71,9.83a2.24,2.24,0,0,0,2.18,1h5c.67,0,1.1-.3,1.1-.79A1.83,1.83,0,0,0,403.73,70.3Z"/><path class="cls-2" d="M258.13,40.3a.92.92,0,0,0-.92-1h-9.34a1,1,0,0,1-1-1V34.11a1,1,0,0,1,1-1h28a1,1,0,0,1,1,1v4.22a1,1,0,0,1-1,1h-9.34a.92.92,0,0,0-.92,1V71.17a1,1,0,0,1-1,1h-5.59a.92.92,0,0,1-.92-1Z"/><path class="cls-2" d="M102.24,11.78c0-1.15-1.21-1.86-2.79-1.86s-4.28.4-4.49.4-.31-.09-.31-.34V7.9c0-.18,0-.43.34-.49A36.92,36.92,0,0,1,99.36,7c3.65,0,6.53,1.09,6.53,4.78v6.94a.71.71,0,0,0,.72.8h.12a.5.5,0,0,1,.5.5v1.89a.5.5,0,0,1-.5.5h-1.12c-1.64,0-2.41-.5-2.75-1.68a.52.52,0,0,0-.16-.25c-.22,0-.31.06-.37.22-.47,1.18-1.24,1.7-3.19,1.7H97.87a3.91,3.91,0,0,1-4.09-3.9v-.65c0-2.29,1.7-3.59,3.93-4.06l4.53-1ZM100.44,0a3.13,3.13,0,1,1-3.13,3.13A3.12,3.12,0,0,1,100.44,0Zm-.56,19.55c2.11,0,2.36-1.18,2.36-3.13v-1l-3.47.87a1.67,1.67,0,0,0-1.34,1.64v.31c0,.84.72,1.33,1.65,1.33Zm.56-15.09a1.33,1.33,0,1,0-1.33-1.33A1.32,1.32,0,0,0,100.44,4.46Z"/><path class="cls-2" d="M118.34,7.19a.46.46,0,0,0,.46-.5V2.11a.46.46,0,0,1,.46-.5H122a.49.49,0,0,1,.49.5V18.16c0,3.41-2.2,4.59-6.91,4.59-4.18,0-6.1-1.52-6.1-4.59V11.62c0-2.88,2.08-4.58,5.76-4.58C116.51,7,117.35,7.19,118.34,7.19Zm-5.24,5.49v5.05c0,1.27.53,2,2.57,2h.5c2.11,0,2.63-.71,2.63-2v-7c0-.38-1.3-.66-2.94-.66C113.44,10.07,113.1,10.82,113.1,12.68Z"/><path class="cls-2" d="M138.09,15.56a.46.46,0,0,1-.46.5h-8.24v.46c0,1.86,1.57,3,3.81,3H137a.48.48,0,0,1,.49.49V22a.48.48,0,0,1-.49.49h-4.5c-3.9,0-6.81-2.05-6.81-6.07V12.49c0-3.06,1.42-5.45,6.38-5.45,4.25,0,6,2.14,6,4.74ZM129.39,13c0,.28.09.43.4.43h4.27a.46.46,0,0,0,.47-.49v-.69c0-1.39-.59-2.35-2.54-2.35-2.17,0-2.6,1.05-2.6,2.42Z"/><path class="cls-2" d="M142.51,10.45a.47.47,0,0,0-.46-.5H140.5a.49.49,0,0,1-.5-.49V7.57a.5.5,0,0,1,.5-.5h1.55a.46.46,0,0,0,.46-.49V3.7a.47.47,0,0,1,.47-.5h2.7a.49.49,0,0,1,.49.5V6.58a.46.46,0,0,0,.46.49h2.64a.49.49,0,0,1,.49.5V9.46a.49.49,0,0,1-.49.5h-2.64a.46.46,0,0,0-.46.49v6.76c0,1.73.46,2.07,1.7,2.07h1.43a.47.47,0,0,1,.46.5V21.7a.44.44,0,0,1-.46.46h-3.5c-2.42,0-3.29-1-3.29-3.56Z"/><path class="cls-2" d="M159.89,5.53c0-3,1.93-4.19,5-4.19h1.79a.45.45,0,0,1,.47.47V3.73a.46.46,0,0,1-.47.49H165.6c-1.55,0-2,.53-2,2.08v.28a.47.47,0,0,0,.47.5h2.47a.49.49,0,0,1,.5.49V9.46a.5.5,0,0,1-.5.5H164a.47.47,0,0,0-.47.5V21.67a.5.5,0,0,1-.5.5h-2.69a.47.47,0,0,1-.47-.5V10.45a.45.45,0,0,0-.46-.49h-1.55a.5.5,0,0,1-.5-.5V7.57a.49.49,0,0,1,.5-.49h1.55a.46.46,0,0,0,.46-.5Z"/><path class="cls-2" d="M168.62,11.35c0-2.6,1.62-4.58,6.45-4.58s6.41,2,6.41,4.59v6.53c0,2.64-1.64,4.59-6.41,4.59s-6.45-1.95-6.45-4.59Zm3.66,6c0,1.43.49,2.3,2.79,2.3s2.75-.87,2.75-2.3V11.94c0-1.39-.53-2.29-2.76-2.29s-2.79.9-2.79,2.29Z"/><path class="cls-2" d="M185.65,10.46a.46.46,0,0,0-.46-.5h-1a.49.49,0,0,1-.5-.49V7.57a.49.49,0,0,1,.5-.49h7.56A3.84,3.84,0,0,1,195.69,11v1.18a.49.49,0,0,1-.49.5h-2.39a.46.46,0,0,1-.46-.5v-.74A1.46,1.46,0,0,0,190.7,10h-.93a.47.47,0,0,0-.46.5v8.33a.46.46,0,0,0,.46.5h2.85a.49.49,0,0,1,.5.49v1.9a.49.49,0,0,1-.5.49H184.2a.49.49,0,0,1-.5-.49v-1.9a.49.49,0,0,1,.5-.49h1a.46.46,0,0,0,.46-.5Z"/><path class="cls-2" d="M91.36,21.62a1.24,1.24,0,0,1,.16.47c0,.24-.16.37-.44.37h-3c-.34,0-.52-.1-.77-.5l-5-7.44a2,2,0,0,1-.44-1.3V11.11a.5.5,0,0,1,.5-.5h3A1.64,1.64,0,0,0,87,8.94V6.18A1.65,1.65,0,0,0,85.35,4.5H80.57a.47.47,0,0,0-.47.5V22a.49.49,0,0,1-.49.5H76.79a.47.47,0,0,1-.47-.5V5a.46.46,0,0,0-.46-.5h-1a.49.49,0,0,1-.5-.49V2.12a.5.5,0,0,1,.5-.5h12a3.94,3.94,0,0,1,3.94,4V9.37a3.94,3.94,0,0,1-3.94,4H85.69Z"/></svg>
