<?xml version="1.0" standalone="no"?>
<!DOCTYPE svg PUBLIC "-//W3C//DTD SVG 20010904//EN"
 "http://www.w3.org/TR/2001/REC-SVG-20010904/DTD/svg10.dtd">
<svg version="1.0" xmlns="http://www.w3.org/2000/svg"
 width="99.000000pt" height="99.000000pt" viewBox="0 0 99.000000 99.000000"
 preserveAspectRatio="xMidYMid meet">
<metadata>
Created by potrace 1.11, written by Peter Selinger 2001-2013
</metadata>
<g transform="translate(0.000000,99.000000) scale(0.100000,-0.100000)"
fill="#000000" stroke="none">
<path d="M410 983 c-49 -8 -126 -38 -180 -72 -260 -162 -308 -525 -98 -747
131 -138 295 -185 495 -140 32 7 122 53 160 82 175 133 240 374 156 579 -55
134 -183 247 -323 285 -45 13 -163 20 -210 13z m128 -97 c18 1 22 -4 22 -28 0
-17 -5 -28 -12 -27 -45 5 -50 -13 -14 -50 36 -38 38 -79 6 -111 -40 -40 -114
-15 -124 43 -4 21 3 36 25 61 18 21 27 40 23 50 -3 9 -10 14 -14 11 -5 -3 -15
-2 -23 1 -11 4 -13 12 -8 27 5 12 12 22 17 22 18 0 35 17 30 30 -3 9 4 15 17
17 17 2 23 -3 27 -22 4 -18 11 -25 28 -24z m-73 -282 c18 -12 26 -11 59 5 43
22 89 20 126 -7 21 -16 29 -17 54 -7 30 13 78 10 107 -6 9 -5 26 -27 37 -49
16 -34 18 -48 10 -83 -11 -52 -44 -109 -95 -164 l-39 -43 -236 0 -236 0 -43
47 c-52 60 -91 143 -91 194 1 79 77 134 151 108 26 -9 38 -8 74 10 44 22 83
21 122 -5z m253 -424 l-3 -25 -227 0 -228 0 0 25 0 25 230 0 231 0 -3 -25z"/>
<path d="M472 748 c-15 -15 -16 -45 -2 -53 18 -11 50 6 50 25 0 25 -33 43 -48
28z"/>
<path d="M380 570 c-18 -4 -27 -15 -34 -42 -8 -30 -5 -43 17 -80 25 -43 113
-138 127 -138 4 0 31 23 59 52 52 52 91 119 91 154 0 55 -65 80 -105 40 -27
-27 -26 -57 0 -87 15 -16 15 -20 -11 -48 -33 -38 -43 -38 -72 -1 l-23 29 22
30 c19 26 20 32 8 56 -16 32 -43 44 -79 35z"/>
<path d="M186 534 c-33 -33 -17 -100 44 -180 l39 -52 72 -1 72 -1 -27 33 c-53
64 -87 122 -93 160 -3 21 -13 42 -24 47 -27 15 -66 12 -83 -6z"/>
<path d="M708 538 c-9 -7 -19 -28 -21 -46 -5 -32 -49 -116 -67 -127 -5 -3 -19
-19 -30 -35 l-21 -30 66 0 c59 0 69 3 92 28 71 75 101 166 68 202 -20 23 -63
26 -87 8z"/>
</g>
</svg>
