<svg id="Layer_2" data-name="Layer 2" xmlns="http://www.w3.org/2000/svg" xmlns:xlink="http://www.w3.org/1999/xlink" width="939" height="923" viewBox="0 0 939 923"><defs><style>.cls-1{fill:#7f4a4f;}.cls-11,.cls-2{fill:none;stroke-width:2px;}.cls-2,.cls-5{stroke:#000;}.cls-11,.cls-13,.cls-2,.cls-5{stroke-miterlimit:10;}.cls-3{fill:#f8b185;}.cls-4{fill:url(#linear-gradient);}.cls-5{fill:url(#linear-gradient-2);}.cls-6{fill:url(#linear-gradient-3);}.cls-7{fill:url(#linear-gradient-4);}.cls-8{fill:#eb976b;}.cls-9{fill:#d49143;}.cls-10{fill:#fffeea;}.cls-11{stroke:#e6e6e6;}.cls-12{fill:#fff;}.cls-13{fill:#747b85;stroke:#567b85;}.cls-14{fill:#db976b;}.cls-15{fill:#ef8377;}.cls-16{fill:#be4e5e;}</style><linearGradient id="linear-gradient" x1="220.46" y1="257.09" x2="168.89" y2="69.18" gradientUnits="userSpaceOnUse"><stop offset="0" stop-color="#e7a652"/><stop offset="0.01" stop-color="#e5a350"/><stop offset="0.09" stop-color="#da9847"/><stop offset="0.2" stop-color="#d49141"/><stop offset="0.51" stop-color="#d28f40"/><stop offset="1" stop-color="#c17c2e"/></linearGradient><linearGradient id="linear-gradient-2" x1="129.41" y1="524.22" x2="142.69" y2="834.69" gradientUnits="userSpaceOnUse"><stop offset="0" stop-color="#0f0d1a"/><stop offset="1" stop-color="#00000b"/></linearGradient><linearGradient id="linear-gradient-3" x1="110.18" y1="272.63" x2="139.8" y2="237.9" gradientUnits="userSpaceOnUse"><stop offset="0" stop-color="#f8b185"/><stop offset="1" stop-color="#ea976b"/></linearGradient><linearGradient id="linear-gradient-4" x1="134.72" y1="70" x2="124.51" y2="204.81" gradientUnits="userSpaceOnUse"><stop offset="0.44" stop-color="#ea7b58"/><stop offset="0.53" stop-color="#ee8a65"/><stop offset="0.69" stop-color="#f3a077"/><stop offset="0.85" stop-color="#f7ad81"/><stop offset="1" stop-color="#f8b185"/></linearGradient></defs><title>dårligt</title><rect class="cls-1" width="939" height="923"/><line class="cls-2" x1="102.44" y1="857.84" x2="96.53" y2="887.33"/><line class="cls-2" x1="116.44" y1="857.84" x2="121.26" y2="887.74"/><path class="cls-3" d="M96.78,888.3c.94-6.92,5.16-22.08,5.16-39,.32,6.11,10.7,6.38,16,3.55a178.91,178.91,0,0,0,4,36.45C127.09,913.8,92.76,917.8,96.78,888.3Z"/><path d="M122.44,889.9c0,14.33-5.71,18.94-13.44,18.94s-13.56-8.65-13.56-19.91c0-7.07,5.83-5.68,13.56-5.68S122.44,884.79,122.44,889.9Z"/><line class="cls-2" x1="146.54" y1="858.16" x2="140.64" y2="887.65"/><line class="cls-2" x1="160.54" y1="858.16" x2="165.36" y2="888.06"/><path class="cls-4" d="M213.86,277.32c-34.41-5.33-55.45-26.19-55.45-58.48,0-14,10.67-26.63,25.58-36.52q-1.38.06-2.79.06C141.35,182.38,109,151.77,109,114s32.31-68.36,72.16-68.36S253.35,76.27,253.35,114c0,4.29,1.11,8.48.31,12.55,0,3-.31,4.16-.31,8,0,13,.32,21.25,0,26.58,0,.09,0-.07,0,0s0,0,0,0c-.79,13-2.6,12.7-.48,34a25.5,25.5,0,0,0,18.87,22.29,51.63,51.63,0,0,0,12.75,1.46C285.25,218.84,277.66,287.19,213.86,277.32Z"/><path class="cls-3" d="M140.88,888.62c.94-6.92,5.16-22.08,5.16-39,.32,6.11,10.7,6.38,16,3.55a178.91,178.91,0,0,0,4,36.45C171.19,914.12,136.86,918.12,140.88,888.62Z"/><path class="cls-5" d="M195,513.66c-.52,6.54-1.45,18-3,27-2.4,14-2.92,22.6-5.2,33.49l0,.15c-5.92,70.4-11.89,190.43-21.77,275.36-.17,1.44-1.33,2.65-3,3.55-5.29,2.83-15.67,2.56-16-3.55-5-96-12-132.52-12-213.94v-.12c-3.73-42.26-5.57-73.52-4.81-95.65a1.28,1.28,0,0,0-1.33-1.33h0a1.28,1.28,0,0,0-1.26,1.32c.51,20.68-1.22,51.56-2.58,97.66v.12c4.75,81.28-6,118.57-5.34,214.68a4.5,4.5,0,0,1-.57,2.29c-2.41,4.34-11.91,4.38-16.25,1.6a4.27,4.27,0,0,1-2.14-2.78C84.91,769.29,77.07,648.64,67.05,578.72a.49.49,0,0,1,0-.12c-.89-20.1-5.18-48-3-69.94.11-1.11,1.07,1.7,1.85,2.5C83.27,529.08,172.56,534,193,516.31,193.86,515.56,195.13,512.52,195,513.66Z"/><path class="cls-3" d="M54.37,506.88c1.08,7.49,3,14-2.36,14.88-2.21.37-4.68-3.42-6.1-8.88a40.91,40.91,0,0,1-3.08,9.17c-5.15,11-10.46,18.83-19.29,15.25-9.87-4-1.32-19.42,3.83-30.42.64-1.36,1.26-2.57,1.87-3.64l.13-.36c6.07-16.48,6.12-42.73,6-49.41a1.06,1.06,0,0,1-.36-.81C35,425.73,39.9,352,44.29,311.77c2.93,5.16,20,1.47,25.51-2,0,3.5,0,7,.07,10.58,0,2.46,0,4.92,0,7.35,0,8.57.35,17.13,1,25.23C56.34,382.39,54.58,430.82,52,447.66h0c0,12.58-4.38,34.53-.37,49.79A29.6,29.6,0,0,1,54.37,506.88Z"/><path d="M94.69,260.73l-.1,0c-3.46.59-8.06,1.35-12.49,2C71.76,264.23,70.3,283.19,70.24,305c-.47-.57-.8.21,0,4.37v.45c-5.84,3.43-24.11,7.12-27.24,2a3.8,3.8,0,0,1-.27-3.11c3.87-13.46-3.2-48,41.65-48C88.19,260.66,91.6,260.44,94.69,260.73Z"/><path class="cls-3" d="M203,424c-.77,0-11.74-16.79-14.27-35.66-2-14.89-3-23.64-1.89-34.34.64-8.1,1-16.66,1-25.23,0-2.43,0-4.89,0-7.35,0-3.54.06-7.08.07-10.58,5.47,3.43,25.83,4,28.76-1.14,0,22,0,61,7,107C224,418.68,209.65,423.7,203,424Z"/><path d="M195.36,513.73c-15.05,21.54-119.62,15.75-131.34-5a7.57,7.57,0,0,1-1-5c6-38,20-75,17-97a13.82,13.82,0,0,1-.13-2.46q-1.32-5.77-2.28-11.65c-3.07-9.1-5.47-23.45-6.74-39.58-.64-8.1-1-16.66-1-25.23,0-2.43,0-4.89,0-7.35,0-3.54-.06-7.08-.07-10.58v-.45c0-1.47,0-2.93,0-4.37.06-21.8,1.42-40.76,11.11-42.25,4.15-.64,8.45-1.4,11.69-2l.1,0,.35-.07h0l4.84,0c39.47.26,32.72,3.66,62.14,0l.72.14c1.35.26,4.45.85,8.18,1.51-.95,0-1.88.05-2.77.14l.1,0c3.24.59,7.54,1.35,11.69,2a7.27,7.27,0,0,1,3.35,1.42c8.25,8.23,6.73,37,6.73,62.78,0,27.42-3.58,54.78-8.74,67.55a123,123,0,0,1-3.55,14.24,10.88,10.88,0,0,1,.29,2.21c1,36,16,61,21,94A9.47,9.47,0,0,1,195.36,513.73Z"/><path d="M219,313.49c-3.63,5.16-24.8,1.47-31.56-2v-.45c.94-4.16.55-4.94,0-4.37-.06-19-1.35-35.82-9.6-40.83a10.28,10.28,0,0,0-5.29-2.22c-3.4-.42-6.89-.9-10-1.35,2.64,0,5.47.07,8.51.07,52,0,43.78,34.54,48.26,48A3.33,3.33,0,0,1,219,313.49Z"/><path class="cls-6" d="M148,229.66c0,10.77-3,27,9,31,12.84,4.28-67.61,6.47-59,0,16-12,9-30,9-30C120.57,230.66,148,218.89,148,229.66Z"/><path class="cls-7" d="M209.24,161.93c-1.3,9.9-6.46,17.39-11.53,16.72-2-.27-3.76-1.83-5-4.24-7.13,35.84-41.57,63.07-64.17,63.07-22,0-57.28-27.54-64.27-63.67-1.16,2.81-2.94,4.68-5.15,5-5,.82-10.42-6.52-12-16.37s1.2-18.52,6.24-19.33c3.62-.58,7.4,3,9.84,8.75C64.65,111.05,76.7,61.41,129,60.66c50-.71,62.94,48.42,64.83,89.07,2.28-4.57,5.48-7.36,8.66-6.94C207.5,143.46,210.55,152,209.24,161.93Z"/><path class="cls-8" d="M138.18,179.26a1.27,1.27,0,0,1,1.18,2c-2.55,3.55-10.88,6.15-11.22,6.15s-12-3-12-7.63c0-2.41,5.62,0,12,0A99.84,99.84,0,0,0,138.18,179.26Z"/><path class="cls-9" d="M169.91,128.2s-14,4.26-14.76,4.62c-1.44.71-15.83,6.05-15.83,6.05-1.08-.37,6-7.45,13.34-11.1C159.14,124.56,169.91,128.2,169.91,128.2Z"/><path class="cls-9" d="M104.33,122.05s-14.65.63-15.44.8c-1.57.33-16.85,1.91-16.85,1.91-1-.62,7.65-5.72,15.69-7.42C94.8,115.85,104.33,122.05,104.33,122.05Z"/><path class="cls-9" d="M195,154.07c-2.41,3.83-1.27-14-5.37-24.42-5.73-14.59-13.16-33.3-17.06-26.74-3.25,5.48-11.83,21.83-12.12,16.55-1.42-25.36-9.09-35.2-8.79-29.93,1.4,25.09-15,41.43-13.38,36.46,8.13-24.26-14.18-41.53-14.18-41.53-7.85,50.7-44.13,50.08-49.38,50.37L62.51,150.07c-18.12-12.63-6.08-95,62.9-94.79C198,55.48,210.32,129.74,195,154.07Z"/><path d="M166.54,890.23c0,14.33-5.71,18.93-13.44,18.93s-13.56-8.65-13.56-19.91c0-7.06,5.83-5.67,13.56-5.67S166.54,885.11,166.54,890.23Z"/><path class="cls-3" d="M207.54,401.1c17.79-3.29,33.58-7.56,42-9.05h0c11.88-4.12,34.14-6.94,47.17-15.95a28.42,28.42,0,0,1,8-5.78c6.7-3.54,12.19-7.59,14.88-2.52,1.11,2.09-1.61,5.8-6.28,9a39.33,39.33,0,0,1,9.74.08c12.18,1.54,21.41,4.29,21.09,14.29-.35,11.18-17.89,7.68-30.06,6.14-1.51-.2-2.87-.42-4.09-.68h-.39c-17.67-.67-42.49,7.88-48.77,10.16-.12.3-6.44,2.15-6.75,2.26-9.77,3.39-20.2,6.68-39.1,12"/><path class="cls-10" d="M360.74,374.52c-.43,15.27-11,5.09-41.36,7-22.33,1.41-38.4,7-40.52-7-.36-2.38,2.27-4.64,6.47-6.51-.05-.34-.08-.7-.1-1.07-.19-4.1,5.11-7.75,13.35-10.09-1.62-12.64,17-8,13.16-23.27,0,0,29.9.42,30.95,23.51,8,2.35,13.21,5.89,12.95,9.85a16.59,16.59,0,0,1-.21,1.69C359,370.37,360.8,372.37,360.74,374.52Z"/><path class="cls-11" d="M354.8,373.67c5.51,4.25,2.9,6.27-1.16,6.4h-.09l-20.85-2.44a71.22,71.22,0,0,0-16.89,0l-12.2,1.48"/><path class="cls-11" d="M345.89,361c10.6,3.81,5.48,6.08,1.41,6.22h-.09l-30.59.14"/><path class="cls-11" d="M317.89,339.31l11.88,3.4c11.88,3.39,6,12.22.53,13.75l-3.93,1.09"/><path class="cls-12" d="M144.49,154.25c.91,4.64,8.58,3.83,16.7,1.89s15.58-4.74,15.56-8.9c0-8.36-4.42-13.49-16.7-12S142.89,146.05,144.49,154.25Z"/><path class="cls-13" d="M153.22,150.8c1.06,4.45,5.49,5,10.48,3.85s5.64-3.91,4.45-8.87c-.79-3.32-2.33-4.34-7.33-3.15S152.43,147.49,153.22,150.8Z"/><path class="cls-14" d="M143.74,153.84c.56,2.57,6.25-8.69,14.37-10.63a47.43,47.43,0,0,1,15.94-1c4.5,10.24,3.8-12-13.26-8.13C146.65,137.26,142,145.67,143.74,153.84Z"/><path d="M143.93,155.1c0,.81.58,1.38.87.44.72-2.25,4.34-5.06,10.71-9.38l.16-.11.07,0,0,0c.13-.08.25-.17.38-.24a.6.6,0,0,1,.15-.09,21.2,21.2,0,0,1,2.51-1.36l.7-.3a19.46,19.46,0,0,1,15-.27.89.89,0,0,1,.3.18.65.65,0,0,1,.16.21l.78.79c.34.68,2.15-.27,4.1-1.27a1.27,1.27,0,0,0,.74-1.68c-.22-.44-.1.19-2.25,1a1,1,0,0,1-1-.15c-3.1-3.36-12.37-5.33-20.3-1.28C148.31,146,143.94,152.93,143.93,155.1Z"/><path class="cls-9" d="M86.11,130.68s14,4.26,14.76,4.61c1.44.72,15.83,6.05,15.83,6.05,1.08-.36-6-7.44-13.34-11.09C96.88,127,86.11,130.68,86.11,130.68Z"/><path class="cls-12" d="M113.49,154c-.26,4.72-8,5-16.28,4.17s-16.08-2.56-16.64-6.69c-1.11-8.28,2.54-14,14.91-14.13S114,145.69,113.49,154Z"/><path class="cls-13" d="M104.37,151.82c-.44,4.55-4.74,5.74-9.85,5.25s-6.12-3.11-5.63-8.19c.33-3.39,1.72-4.61,6.83-4.11S104.7,148.42,104.37,151.82Z"/><path class="cls-14" d="M114.18,153.52c-.21,2.63-7.38-7.74-15.7-8.55a47.17,47.17,0,0,0-15.91,1.19c-3.06,10.76-5.41-11.34,12-9.87C109,137.5,114.83,145.19,114.18,153.52Z"/><path d="M114.16,154.81c.12.79-.38,1.44-.8.55-1-2.13-5-4.42-11.89-7.83l-.18-.09-.07,0,0,0-.41-.19-.17-.07a21.86,21.86,0,0,0-2.67-1c-.24-.08-.49-.15-.73-.21a19.51,19.51,0,0,0-14.86,1.78.87.87,0,0,0-.27.23.71.71,0,0,0-.13.22l-.66.89c-.25.72-2.17,0-4.24-.69a1.27,1.27,0,0,1-1-1.56c.16-.47.12.17,2.36.65a1,1,0,0,0,1-.28c2.61-3.75,11.52-7,19.93-4C108.57,146.34,113.86,152.65,114.16,154.81Z"/><path class="cls-15" d="M150,197v0a2.83,2.83,0,0,0-.2.28h0c-3.19,4.56,1.68,22.23-17.32,22.23-22,0-13.92-17.33-19.56-22.13l.41,0a.3.3,0,0,1-.06-.19c0-.89,3.3-.24,8.53-.24,4.28,0,8.48,2.54,9.67,3.19a18.79,18.79,0,0,1,10-3.21c4.43,0,7.53-1,8.36-.33A.39.39,0,0,1,150,197Z"/><path class="cls-12" d="M149,197a3.91,3.91,0,0,1,.51-.24c-.07.08-.45.14-.51.24s-1,10-1,10c-3.19,4.56-4.37,4.18-17.67,4.93C129,212,119,212,118,210.85a6.43,6.43,0,0,1-1.41-2.14c-1.12-3.25-3.94-11.56-3.72-11.55a.29.29,0,0,1-.06-.19c0-.89,3.3-.24,8.53-.24,4.28,0,8.48,2.55,9.67,3.19a18.72,18.72,0,0,1,10-3.2c4.43,0,7.18.56,8,1.28C149.12,198.1,149.48,197.29,149,197Z"/><path class="cls-16" d="M149,198h1c-.07.07.05-.08,0,0h0c-6.34,3.27-12.68,5.08-18.81,5.08-5.46,0-13.57-3.22-19.7-7.1,0,0,.15.66.43.67a.23.23,0,0,1-.08-.16c0-.71,3.42-.18,8.85-.18,4.44,0,9,2.06,10.22,2.58a22.23,22.23,0,0,1,10.23-2.58c4.6,0,8.16-.13,8.86.69S149.31,198.31,149,198Z"/><rect class="cls-12" x="376" y="13" width="543" height="180" rx="12"/><path d="M413.29,65.73a48.43,48.43,0,0,1,10.87-1.27c7.34,0,12.56,2.64,16,7.65s5.57,12.12,5.57,22.06-2,18.22-5.69,23.87-9.81,8.84-17.5,8.84a53.15,53.15,0,0,1-9.28-.73Zm5.11,54.32a21.24,21.24,0,0,0,5.17.45c10.92,0,16.85-9.48,16.85-26.06.06-14.49-5.23-23.69-16-23.69a19,19,0,0,0-6,.82Z"/><path d="M472.89,97.54H457.51v22.14h17.14v6.65H452.4V64.91h21.37v6.66H457.51V91h15.38Z"/><path d="M489.74,71.66h-12V64.91H507v6.75H494.91v54.67h-5.17Z"/><path d="M523.85,64.91h21.32v6.66H529V92h15v6.56H529v27.79h-5.11Z"/><path d="M586.27,95c0,21.14-8.28,32.35-18.38,32.35-10.45,0-17.79-12.58-17.79-31.17,0-19.5,7.81-32.26,18.38-32.26C579.28,63.91,586.27,76.76,586.27,95Zm-30.71,1c0,13.12,4.58,24.88,12.62,24.88s12.69-11.58,12.69-25.52c0-12.21-4.11-25-12.63-25S555.56,82.5,555.56,96Z"/><path d="M592.9,65.73a35,35,0,0,1,9.81-1.27c5.46,0,9,1.55,11.45,5,2,2.73,3.11,6.93,3.11,11.66,0,8.12-3.29,13.49-7.46,15.68v.27c3.06,1.64,4.88,6,5.82,12.39,1.29,8.57,2.23,14.49,3,16.86H613.4c-.65-1.73-1.53-7-2.65-14.67-1.17-8.47-3.29-11.66-7.92-11.94H598v26.61H592.9Zm5.11,28h5.23c5.46,0,8.92-4.65,8.92-11.66,0-7.93-3.7-11.39-9.1-11.49a14,14,0,0,0-5,.73Z"/><path d="M624.49,64.91h5.11V94.53h.18c1.05-2.37,2.11-4.56,3.11-6.56L645,64.91h6.35L637,91l15.44,35.35h-6.05l-13-30.16-3.76,6.74v23.42h-5.11Z"/><path d="M676.81,97.54H661.42v22.14h17.15v6.65H656.32V64.91h21.37v6.66H661.42V91h15.39Z"/><path d="M685.21,65.73a34.89,34.89,0,0,1,9.8-1.27c5.46,0,9,1.55,11.45,5,2,2.73,3.11,6.93,3.11,11.66,0,8.12-3.29,13.49-7.45,15.68v.27c3,1.64,4.87,6,5.81,12.39,1.29,8.57,2.23,14.49,3.05,16.86H705.7c-.65-1.73-1.53-7-2.65-14.67-1.17-8.47-3.28-11.66-7.92-11.94h-4.82v26.61h-5.1Zm5.1,28h5.23c5.46,0,8.92-4.65,8.92-11.66,0-7.93-3.7-11.39-9.1-11.49a14,14,0,0,0-5.05.73Z"/><path d="M724.84,71.66h-12V64.91h29.3v6.75H730v54.67h-5.16Z"/><path d="M745.33,121.69c0-3.28,1.47-5.65,3.46-5.65s3.47,2.37,3.47,5.65-1.35,5.65-3.47,5.65S745.33,124.88,745.33,121.69Zm1.47-13L746,64.91h5.64l-.82,43.74Z"/><path d="M758.83,121.69c0-3.28,1.47-5.65,3.47-5.65s3.46,2.37,3.46,5.65-1.35,5.65-3.46,5.65S758.83,124.88,758.83,121.69Zm1.47-13-.82-43.74h5.64l-.83,43.74Z"/><path d="M772.34,121.69c0-3.28,1.47-5.65,3.46-5.65s3.47,2.37,3.47,5.65-1.35,5.65-3.47,5.65S772.34,124.88,772.34,121.69Zm1.47-13L773,64.91h5.64l-.82,43.74Z"/><polygon class="cls-12" points="327.01 194 393 192.94 392.33 150.95 327.01 194"/></svg>
