<svg id="Layer_2" data-name="Layer 2" xmlns="http://www.w3.org/2000/svg" xmlns:xlink="http://www.w3.org/1999/xlink" width="915" height="911" viewBox="0 0 915 911"><defs><style>.cls-1{fill:#b9daea;}.cls-2,.cls-9{fill:none;}.cls-2,.cls-5{stroke:#000;}.cls-10,.cls-2,.cls-5,.cls-9{stroke-miterlimit:10;}.cls-2{stroke-width:2px;}.cls-3{fill:#f8b185;}.cls-4{fill:url(#linear-gradient);}.cls-5{fill:url(#linear-gradient-2);}.cls-6{fill:url(#linear-gradient-3);}.cls-7{fill:#eb976b;}.cls-8{fill:#fff;}.cls-9{stroke:#eb976b;}.cls-10{fill:#747b85;stroke:#567b85;}.cls-11{fill:#d49143;}.cls-12{fill:#f8ac7b;}</style><linearGradient id="linear-gradient" x1="212.02" y1="243.13" x2="160.44" y2="55.22" gradientUnits="userSpaceOnUse"><stop offset="0" stop-color="#e7a652"/><stop offset="0.01" stop-color="#e5a350"/><stop offset="0.09" stop-color="#da9847"/><stop offset="0.2" stop-color="#d49141"/><stop offset="0.51" stop-color="#d28f40"/><stop offset="1" stop-color="#c17c2e"/></linearGradient><linearGradient id="linear-gradient-2" x1="120.96" y1="510.26" x2="134.24" y2="820.73" gradientUnits="userSpaceOnUse"><stop offset="0" stop-color="#0f0d1a"/><stop offset="1" stop-color="#00000b"/></linearGradient><linearGradient id="linear-gradient-3" x1="101.73" y1="258.67" x2="131.35" y2="223.95" gradientUnits="userSpaceOnUse"><stop offset="0" stop-color="#f8b185"/><stop offset="1" stop-color="#ea976b"/></linearGradient></defs><title>godt</title><rect class="cls-1" width="915" height="911"/><line class="cls-2" x1="93.99" y1="843.88" x2="88.09" y2="873.37"/><line class="cls-2" x1="107.99" y1="843.88" x2="112.81" y2="873.78"/><path class="cls-3" d="M88.33,874.34c.94-6.92,5.16-22.08,5.16-39,.32,6.11,10.7,6.38,16,3.55a178.91,178.91,0,0,0,4,36.45C118.64,899.84,84.31,903.84,88.33,874.34Z"/><path d="M114,876c0,14.33-5.71,18.93-13.44,18.93S87,886.23,87,875c0-7.06,5.83-5.67,13.56-5.67S114,870.83,114,876Z"/><line class="cls-2" x1="138.09" y1="844.21" x2="132.19" y2="873.69"/><line class="cls-2" x1="152.09" y1="844.21" x2="156.91" y2="874.1"/><path class="cls-4" d="M205.41,263.36C171,258,150,237.17,150,204.88c0-14,10.67-26.63,25.59-36.52-.93,0-1.86.06-2.8.06-39.85,0-72.16-30.61-72.16-68.36s32.31-68.35,72.16-68.35,72.16,30.61,72.16,68.35c0,4.29,1.1,8.48.3,12.55,0,3-.3,4.16-.3,8,0,13,.31,21.25,0,26.59,0,.09,0-.08,0,0s0,0,0,0c-.8,13-2.61,12.69-.49,34a25.53,25.53,0,0,0,18.87,22.3,52.17,52.17,0,0,0,12.76,1.45C276.81,204.88,269.21,273.24,205.41,263.36Z"/><path class="cls-3" d="M132.43,874.67c.94-6.92,5.16-22.08,5.16-39,.32,6.11,10.7,6.38,16,3.55a178.91,178.91,0,0,0,4,36.45C162.74,900.17,128.41,904.17,132.43,874.67Z"/><path class="cls-5" d="M186.59,499.71c-.52,6.54-1.45,18-3,27-2.4,14-2.92,22.6-5.2,33.49l0,.15c-5.92,70.4-11.89,190.43-21.77,275.36-.17,1.44-1.33,2.65-3,3.55-5.29,2.83-15.67,2.56-16-3.55-5-96-12-132.52-12-213.94v-.12c-3.73-42.26-5.57-73.52-4.81-95.65a1.28,1.28,0,0,0-1.33-1.33h0a1.28,1.28,0,0,0-1.26,1.32c.51,20.68-1.22,51.56-2.58,97.66v.12c4.75,81.28-6,118.57-5.34,214.68a4.5,4.5,0,0,1-.57,2.29c-2.41,4.34-11.91,4.38-16.25,1.6a4.27,4.27,0,0,1-2.14-2.78C76.46,755.34,68.62,634.69,58.6,564.77a.49.49,0,0,1,0-.12c-.89-20.1-5.18-48-3-69.94.11-1.11,1.07,1.7,1.85,2.5,17.38,17.92,106.67,22.81,127.1,5.15C185.41,501.61,186.68,498.57,186.59,499.71Z"/><path class="cls-3" d="M45.92,492.93c1.08,7.49,3,14-2.36,14.88-2.21.37-4.68-3.42-6.1-8.88a40.91,40.91,0,0,1-3.08,9.17c-5.15,11-10.46,18.83-19.29,15.25-9.87-4-1.32-19.42,3.83-30.42.64-1.36,1.26-2.57,1.87-3.64l.13-.36C27,472.45,27,446.2,27,439.52a1.06,1.06,0,0,1-.36-.81c0-26.93,4.86-100.64,9.25-140.89,2.93,5.16,20,1.47,25.51-2,0,3.5,0,7,.07,10.58,0,2.46,0,4.92,0,7.35,0,8.57.35,17.13,1,25.23-14.55,29.42-16.31,77.85-18.85,94.69h0c0,12.58-4.38,34.53-.37,49.79A29.6,29.6,0,0,1,45.92,492.93Z"/><path d="M86.24,246.78l-.1,0c-3.46.59-8,1.35-12.48,2-10.35,1.49-11.8,20.45-11.87,42.25-.47-.57-.8.21,0,4.37v.45c-5.84,3.43-24.11,7.12-27.24,2a3.8,3.8,0,0,1-.26-3.11c3.86-13.46-3.21-48,41.64-48C79.74,246.71,83.15,246.49,86.24,246.78Z"/><path class="cls-3" d="M194.51,410c-.77,0-11.73-16.78-14.27-35.66-2-14.89-3-23.64-1.88-34.34.64-8.1,1-16.66,1-25.23,0-2.43,0-4.89,0-7.35,0-3.54.06-7.08.07-10.58,5.47,3.43,25.83,4,28.76-1.14,0,22,0,61,7,107C215.51,404.72,201.21,409.74,194.51,410Z"/><path d="M186.91,499.78c-15,21.54-119.62,15.75-131.34-5a7.57,7.57,0,0,1-1-5.05c6-38,20-75,17-97a13.82,13.82,0,0,1-.13-2.46q-1.32-5.78-2.28-11.65c-3.07-9.1-5.47-23.45-6.74-39.58-.64-8.1-1-16.66-1-25.23,0-2.43,0-4.89,0-7.35,0-3.54-.06-7.08-.07-10.58v-.45c0-1.47,0-2.93,0-4.37.06-21.8,1.42-40.76,11.11-42.25,4.15-.64,8.45-1.4,11.69-2l.1,0,.35-.07h0l4.84,0c39.47.26,32.72,3.66,62.14,0l.72.14c1.35.26,4.45.85,8.18,1.51-1,0-1.88,0-2.77.14l.1,0c3.24.59,7.54,1.35,11.69,2a7.27,7.27,0,0,1,3.35,1.42c8.25,8.23,6.73,37,6.73,62.78,0,27.42-3.58,54.78-8.74,67.55a123,123,0,0,1-3.55,14.24,10.88,10.88,0,0,1,.29,2.21c1,36,16,61,21,94A9.47,9.47,0,0,1,186.91,499.78Z"/><path d="M210.55,299.54c-3.63,5.16-24.79,1.47-31.56-2v-.45c.94-4.16.55-4.94,0-4.37-.06-19-1.35-35.82-9.6-40.83a10.28,10.28,0,0,0-5.28-2.22c-3.41-.42-6.9-.9-10-1.35,2.64,0,5.47.07,8.52.07,52,0,43.77,34.54,48.25,48A3.33,3.33,0,0,1,210.55,299.54Z"/><path class="cls-6" d="M139.59,215.71c0,10.77-3,27,9,31,12.84,4.28-67.61,6.46-59,0,16-12,9-30,9-30C112.13,216.71,139.59,204.94,139.59,215.71Z"/><path class="cls-3" d="M200.79,148c-1.3,9.9-6.46,17.39-11.52,16.73-2.05-.28-3.77-1.84-5-4.25-7.13,35.84-41.57,63.07-64.17,63.07-22,0-57.27-27.54-64.27-63.67-1.15,2.81-2.94,4.69-5.15,5-5,.82-10.41-6.52-12-16.37s1.19-18.52,6.23-19.33c3.62-.58,7.4,3,9.85,8.75C56.2,97.09,68.25,47.45,120.5,46.7c50-.71,62.95,48.43,64.84,89.07,2.27-4.57,5.48-7.35,8.65-6.94C199.05,129.5,202.1,138.07,200.79,148Z"/><path class="cls-7" d="M129.73,160.3a1.28,1.28,0,0,1,1.18,2c-2.55,3.54-10.88,6.15-11.21,6.15s-12.06-3-12.06-7.64c0-2.41,5.62,0,12.06,0A99.78,99.78,0,0,0,129.73,160.3Z"/><path class="cls-8" d="M174.73,140c-.37,9-6.36,15.18-17.26,15.18-13.66,0-17.68-8.94-17.68-18.48a4.43,4.43,0,0,1,0-.52c2-2.63,6.88-10.24,16.69-10.73a1,1,0,0,1,.17,0h.62c-8.76.24-11.07,5.89-11.07,12.85s5.21,12.86,11.65,12.86,11.66-5.76,11.66-12.86c0-6.44-4.29-11.77-9.88-12.72.61.06,1.21.13,1.8.23h0l.64.14c-.15,0-.31-.08-.47-.12,5.92,1,10.83,3.93,12.49,9.14a3.45,3.45,0,0,1,.12.43,1.54,1.54,0,0,1,.06.43v3.62A.54.54,0,0,0,174.73,140Z"/><path class="cls-9" d="M162.12,126l-.64-.14.17,0C161.81,125.91,162,125.94,162.12,126Z"/><path class="cls-10" d="M169.53,138.72c0,7.11-5.22,12.86-11.66,12.86s-11.65-5.75-11.65-12.86c0-6.95,2.31-12.61,11.07-12.85h.58a10.64,10.64,0,0,1,1.7.14h.08C165.24,127,169.53,132.28,169.53,138.72Z"/><path class="cls-8" d="M98.4,139.13c0,9.54-6,16.07-17.28,16.07-13.66,0-17.68-8.94-17.68-18.48a12,12,0,0,1,.05-1.22,1.17,1.17,0,0,1,.2-.44c2.65-3.83,7.21-8.85,14.8-9.57l1.83,0h.61a20.55,20.55,0,0,1,2.23.12h.14l.21,0c8.41,1.38,12.74,8.07,14.58,10.51A14,14,0,0,1,98.4,139.13Z"/><path class="cls-10" d="M93.17,138.33c0,7.1-5.21,12.86-11.65,12.86s-11.65-5.76-11.65-12.86,2.3-12.61,11.06-12.85h.59a7.46,7.46,0,0,1,1,0h.19l.5.07h.14l.21,0C89,126.7,93.17,132,93.17,138.33Z"/><path d="M99.18,136.28c0,1.17-.33.9-1.09-.12-1.84-2.44-6.17-9.13-14.58-10.51l-.21,0h-.14l-.5-.07h-.19a18,18,0,0,0-3.14-.09c-.28,0-.57,0-.84.06-7.59.72-12.15,5.74-14.8,9.57a1.17,1.17,0,0,0-.2.44,1.14,1.14,0,0,0-.05.37v3.62c0,1.11-2.36.4-4.77.4-.79,0-4-1.3-4-2.41,0-.71,2.33-.5,4.84-.91a1.12,1.12,0,0,0,.92-.86c1.35-6.41,9.46-15.11,19.26-15.11C90.47,120.6,99.18,128.06,99.18,136.28Z"/><path d="M138.21,136.93c0,1.17.33.9,1.1-.12,1.88-2.44,6.3-9.13,14.88-10.51a.85.85,0,0,0,.22,0h.14l.51-.07h.2a19.76,19.76,0,0,1,3.2-.09c.29,0,.58,0,.86.06,7.75.73,12.4,5.74,15.1,9.57a1.27,1.27,0,0,1,.21.44,1.5,1.5,0,0,1,.05.37v3.62c0,1.11,2.4.41,4.86.41.81,0,4.05-1.31,4.05-2.41,0-.72-2.38-.51-4.94-.92a1.15,1.15,0,0,1-.94-.86c-1.38-6.41-9.64-15.1-19.65-15.1C147.1,121.26,138.21,128.72,138.21,136.93Z"/><path class="cls-11" d="M174.35,111.8s-14.47-2.41-15.27-2.41c-1.61,0-16.88-1.6-16.88-1.6-.8-.81,8.67-4,16.88-4C166.31,103.77,174.35,111.8,174.35,111.8Z"/><path class="cls-11" d="M95.88,108.09s-14.65.63-15.44.8c-1.57.33-16.84,1.92-16.84,1.92-1-.62,7.64-5.73,15.68-7.43C86.36,101.89,95.88,108.09,95.88,108.09Z"/><path class="cls-11" d="M186.53,140.11c-2.41,3.84-1.27-14-5.37-24.42C175.44,101.1,168,82.39,164.1,89c-3.25,5.47-11.83,21.82-12.12,16.55-1.42-25.37-9.08-35.21-8.79-29.94,1.4,25.09-15.05,41.44-13.38,36.47,8.13-24.27-14.18-41.54-14.18-41.54-7.84,50.7-44.13,50.08-49.37,50.38l-12.2,15.23C35.94,123.48,48,41.14,117,41.32,189.52,41.52,201.87,115.78,186.53,140.11Z"/><path d="M158.09,876.27c0,14.33-5.7,18.94-13.44,18.94s-13.56-8.66-13.56-19.91c0-7.07,5.83-5.68,13.56-5.68S158.09,871.16,158.09,876.27Z"/><image width="77" height="47" transform="translate(96.6 176.67) rotate(5) scale(0.64)" xlink:href="godt1.png"/><path class="cls-3" d="M199.09,387.14c17.8-3.29,33.59-7.56,42-9.05h0c11.89-4.12,34.14-6.93,47.17-15.94,1.65-1.9,0-16.67,3.75-18.15,10-4,3.31,13.93,6,19,1.12,2.09,4.67-3.21,0,0,3-.37-2.4.76,1,0,9-2,20.32-5,20,5-.36,11.18-2,9-16,15-1.4.6-1,0-1.51-.32h-.38c-17.68-.67-42.5,7.88-48.78,10.16-.12.3-6.44,2.16-6.75,2.27-9.77,3.38-20.19,6.68-39.1,12"/><path class="cls-12" d="M321.19,377.57c.22,5.24-10.45,7.46-15.69,7.69s-4.63-14.57-4.86-19.81c-.13-3,11.62-3.51,16.86-3.73S321,372.33,321.19,377.57Z"/><rect class="cls-8" x="353" y="23" width="543" height="108" rx="12"/><path d="M397.9,85.12a14.72,14.72,0,0,0,7.49,2.12c4.27,0,6.77-2.26,6.77-5.52,0-3-1.73-4.76-6.1-6.44-5.28-1.87-8.54-4.6-8.54-9.17,0-5,4.17-8.78,10.46-8.78a14.79,14.79,0,0,1,7.16,1.58L414,62.32a12.92,12.92,0,0,0-6.14-1.53c-4.42,0-6.1,2.64-6.1,4.84,0,3,2,4.52,6.43,6.25,5.48,2.11,8.26,4.75,8.26,9.5,0,5-3.69,9.31-11.33,9.31a16.69,16.69,0,0,1-8.25-2.06Z"/><path d="M435,90.21l-.34-2.93h-.14a8.66,8.66,0,0,1-7.11,3.46c-4.7,0-7.1-3.31-7.1-6.67,0-5.62,5-8.69,14-8.64V75c0-1.92-.53-5.38-5.28-5.38A11.54,11.54,0,0,0,423,71.3l-1-2.78a14.39,14.39,0,0,1,7.63-2.07c7.11,0,8.83,4.85,8.83,9.51v8.68a32.43,32.43,0,0,0,.39,5.57Zm-.63-11.85c-4.61-.1-9.84.72-9.84,5.23a3.74,3.74,0,0,0,4,4,5.77,5.77,0,0,0,5.61-3.89,4.21,4.21,0,0,0,.24-1.34Zm-9.07-18.29c0-2.55,1.87-4.56,4.9-4.56A4.45,4.45,0,0,1,435,60a4.5,4.5,0,0,1-4.8,4.41C427.28,64.43,425.31,62.51,425.31,60.07Zm7.3-.1a2.49,2.49,0,0,0-2.5-2.64,2.46,2.46,0,0,0-2.35,2.74,2.43,2.43,0,1,0,4.85-.1Z"/><path d="M465.34,56.13V84.21c0,2.07.05,4.42.2,6h-3.8l-.19-4h-.09a8.61,8.61,0,0,1-7.93,4.56c-5.61,0-9.93-4.75-9.93-11.81-.05-7.73,4.75-12.48,10.41-12.48,3.56,0,6,1.68,7,3.55h.1V56.13Zm-4.22,20.31a7.7,7.7,0,0,0-.19-1.78,6.22,6.22,0,0,0-6.1-4.9c-4.37,0-7,3.84-7,9,0,4.7,2.3,8.59,6.86,8.59a6.35,6.35,0,0,0,6.2-5,7.48,7.48,0,0,0,.19-1.82Z"/><path d="M485.21,90.21l-.33-2.93h-.15a8.63,8.63,0,0,1-7.1,3.46c-4.71,0-7.11-3.31-7.11-6.67,0-5.62,5-8.69,14-8.64V75c0-1.92-.52-5.38-5.28-5.38a11.51,11.51,0,0,0-6,1.73l-1-2.78a14.36,14.36,0,0,1,7.63-2.07c7.1,0,8.83,4.85,8.83,9.51v8.68a33.54,33.54,0,0,0,.38,5.57Zm-.62-11.85c-4.61-.1-9.84.72-9.84,5.23a3.74,3.74,0,0,0,4,4,5.78,5.78,0,0,0,5.62-3.89,4.51,4.51,0,0,0,.24-1.34Z"/><path d="M495.48,73.27c0-2.4,0-4.37-.19-6.29H499l.24,3.84h.09a8.55,8.55,0,0,1,7.68-4.37c3.22,0,8.21,1.92,8.21,9.89V90.21H511V76.82c0-3.74-1.39-6.86-5.38-6.86A6,6,0,0,0,500,74.28a5.78,5.78,0,0,0-.29,2v14h-4.23Z"/><path d="M519.39,96.12a69.76,69.76,0,0,0,2.88-11.48l4.7-.48a58.08,58.08,0,0,1-4.56,11.67Z"/><path d="M562.25,67c-.09,1.68-.19,3.55-.19,6.38V86.85c0,5.33-1,8.6-3.31,10.61s-5.52,2.79-8.45,2.79a15.09,15.09,0,0,1-7.73-1.92l1.06-3.22a13.06,13.06,0,0,0,6.81,1.82c4.32,0,7.49-2.25,7.49-8.11V86.23h-.09a8.31,8.31,0,0,1-7.4,3.89c-5.76,0-9.88-4.9-9.88-11.33,0-7.87,5.13-12.34,10.46-12.34a7.73,7.73,0,0,1,7.25,4h.1l.19-3.5Zm-4.37,9.17a6.15,6.15,0,0,0-6.14-6.39c-4,0-6.91,3.41-6.91,8.79,0,4.56,2.3,8.35,6.86,8.35a6.17,6.17,0,0,0,5.86-4.32,7.37,7.37,0,0,0,.33-2.26Z"/><path d="M590.09,78.4c0,8.6-6,12.34-11.57,12.34-6.28,0-11.13-4.61-11.13-11.95,0-7.78,5.08-12.34,11.52-12.34C585.58,66.45,590.09,71.3,590.09,78.4Zm-18.43.24c0,5.09,2.93,8.93,7.06,8.93s7-3.79,7-9c0-3.94-2-8.93-7-8.93S571.66,74.23,571.66,78.64Z"/><path d="M615.48,56.13V84.21c0,2.07,0,4.42.2,6h-3.8l-.19-4h-.09a8.61,8.61,0,0,1-7.93,4.56c-5.61,0-9.93-4.75-9.93-11.81,0-7.73,4.75-12.48,10.42-12.48,3.55,0,6,1.68,7,3.55h.1V56.13Zm-4.22,20.31a7.7,7.7,0,0,0-.19-1.78,6.22,6.22,0,0,0-6.1-4.9c-4.37,0-7,3.84-7,9,0,4.7,2.3,8.59,6.87,8.59a6.35,6.35,0,0,0,6.19-5,7.48,7.48,0,0,0,.19-1.82Z"/><path d="M627.58,60.31V67h6V70.2h-6V82.72c0,2.88.82,4.52,3.17,4.52A9.61,9.61,0,0,0,633.2,87l.19,3.17a10.52,10.52,0,0,1-3.75.57,5.86,5.86,0,0,1-4.56-1.77c-1.2-1.25-1.63-3.32-1.63-6V70.2h-3.6V67h3.6V61.41Z"/><path d="M668.57,67c-.09,1.68-.19,3.55-.19,6.38V86.85c0,5.33-1.06,8.6-3.31,10.61s-5.52,2.79-8.45,2.79a15.06,15.06,0,0,1-7.73-1.92L650,95.11a13.06,13.06,0,0,0,6.81,1.82c4.32,0,7.49-2.25,7.49-8.11V86.23h-.09a8.31,8.31,0,0,1-7.4,3.89c-5.76,0-9.89-4.9-9.89-11.33,0-7.87,5.14-12.34,10.47-12.34a7.73,7.73,0,0,1,7.25,4h.09l.2-3.5Zm-4.37,9.17a5.78,5.78,0,0,0-.24-1.92,6.08,6.08,0,0,0-5.9-4.47c-4,0-6.91,3.41-6.91,8.79,0,4.56,2.3,8.35,6.86,8.35a6.18,6.18,0,0,0,5.86-4.32,7.37,7.37,0,0,0,.33-2.26Z"/><path d="M688.25,90.21l-.34-2.93h-.14a8.64,8.64,0,0,1-7.1,3.46c-4.71,0-7.11-3.31-7.11-6.67,0-5.62,5-8.69,14-8.64V75c0-1.92-.53-5.38-5.28-5.38a11.54,11.54,0,0,0-6,1.73l-1-2.78a14.42,14.42,0,0,1,7.63-2.07c7.11,0,8.84,4.85,8.84,9.51v8.68a32.5,32.5,0,0,0,.38,5.57Zm-.62-11.85c-4.61-.1-9.84.72-9.84,5.23a3.74,3.74,0,0,0,4,4,5.8,5.8,0,0,0,5.62-3.89,4.51,4.51,0,0,0,.24-1.34Zm-9.08-18.29c0-2.55,1.88-4.56,4.9-4.56A4.45,4.45,0,0,1,688.2,60a4.5,4.5,0,0,1-4.8,4.41C680.52,64.43,678.55,62.51,678.55,60.07Zm7.3-.1a2.44,2.44,0,1,0-4.85.1,2.43,2.43,0,1,0,4.85-.1Z"/><path d="M700.87,79.36c.1,5.72,3.75,8.07,8,8.07a15.26,15.26,0,0,0,6.43-1.2l.72,3a18.8,18.8,0,0,1-7.72,1.44c-7.16,0-11.43-4.7-11.43-11.71s4.13-12.53,10.9-12.53c7.58,0,9.6,6.67,9.6,11a15.19,15.19,0,0,1-.15,2Zm12.39-3c0-2.69-1.11-6.86-5.86-6.86-4.27,0-6.14,3.93-6.48,6.86Z"/><path d="M727.66,60.31V67h6.05V70.2h-6.05V82.72c0,2.88.81,4.52,3.17,4.52a9.46,9.46,0,0,0,2.44-.29l.2,3.17a10.56,10.56,0,0,1-3.75.57,5.86,5.86,0,0,1-4.56-1.77c-1.2-1.25-1.63-3.32-1.63-6V70.2h-3.6V67h3.6V61.41Z"/><path d="M737.64,87.76a2.81,2.81,0,0,1,2.83-3,2.76,2.76,0,0,1,2.83,3,2.79,2.79,0,0,1-2.83,3A2.82,2.82,0,0,1,737.64,87.76Zm1.2-6.86-.67-23h4.61l-.68,23Z"/><polygon class="cls-8" points="353 177 353 111 395 111 353 177"/><image width="77" height="47" transform="translate(95.61 176) rotate(5) scale(0.64)" xlink:href="godt2.png"/></svg>
