<svg id="Layer_2" data-name="Layer 2" xmlns="http://www.w3.org/2000/svg" xmlns:xlink="http://www.w3.org/1999/xlink" width="926" height="892" viewBox="0 0 926 892"><defs><style>.cls-1{fill:#d4e8f2;}.cls-2,.cls-9{fill:none;}.cls-2,.cls-5{stroke:#000;}.cls-10,.cls-2,.cls-5,.cls-9{stroke-miterlimit:10;}.cls-2{stroke-width:2px;}.cls-3{fill:#f8b185;}.cls-4{fill:url(#linear-gradient);}.cls-5{fill:url(#linear-gradient-2);}.cls-6{fill:url(#linear-gradient-3);}.cls-7{fill:#eb976b;}.cls-8{fill:#fff;}.cls-9{stroke:#eb976b;}.cls-10{fill:#747b85;stroke:#567b85;}.cls-11{fill:#d49143;}.cls-12{fill:#f8ac7b;}</style><linearGradient id="linear-gradient" x1="224.74" y1="230.13" x2="173.16" y2="42.22" gradientUnits="userSpaceOnUse"><stop offset="0" stop-color="#e7a652"/><stop offset="0.01" stop-color="#e5a350"/><stop offset="0.09" stop-color="#da9847"/><stop offset="0.2" stop-color="#d49141"/><stop offset="0.51" stop-color="#d28f40"/><stop offset="1" stop-color="#c17c2e"/></linearGradient><linearGradient id="linear-gradient-2" x1="133.68" y1="497.26" x2="146.96" y2="807.73" gradientUnits="userSpaceOnUse"><stop offset="0" stop-color="#0f0d1a"/><stop offset="1" stop-color="#00000b"/></linearGradient><linearGradient id="linear-gradient-3" x1="114.46" y1="245.67" x2="144.07" y2="210.95" gradientUnits="userSpaceOnUse"><stop offset="0" stop-color="#f8b185"/><stop offset="1" stop-color="#ea976b"/></linearGradient></defs><title>godt</title><rect class="cls-1" width="926" height="892"/><line class="cls-2" x1="106.71" y1="830.88" x2="100.81" y2="860.37"/><line class="cls-2" x1="120.71" y1="830.88" x2="125.53" y2="860.78"/><path class="cls-3" d="M101.05,861.34c.94-6.92,5.16-22.08,5.16-39,.32,6.11,10.7,6.38,16,3.55a178.91,178.91,0,0,0,4,36.45C131.36,886.84,97,890.84,101.05,861.34Z"/><path d="M126.71,863c0,14.33-5.7,18.93-13.44,18.93S99.71,873.23,99.71,862c0-7.06,5.83-5.67,13.56-5.67S126.71,857.83,126.71,863Z"/><line class="cls-2" x1="150.82" y1="831.21" x2="144.91" y2="860.69"/><line class="cls-2" x1="164.82" y1="831.21" x2="169.64" y2="861.1"/><path class="cls-4" d="M218.13,250.36c-34.41-5.33-55.44-26.19-55.44-58.48,0-14,10.66-26.63,25.58-36.52-.93,0-1.86.06-2.8.06-39.84,0-72.15-30.61-72.15-68.36s32.31-68.35,72.15-68.35,72.16,30.61,72.16,68.35c0,4.29,1.11,8.48.3,12.55,0,3-.3,4.16-.3,8,0,13,.32,21.25,0,26.59,0,.09,0-.08,0,0s0,0,0,0c-.8,13-2.61,12.69-.48,34A25.52,25.52,0,0,0,276,190.43a52.17,52.17,0,0,0,12.76,1.45C289.53,191.88,281.93,260.24,218.13,250.36Z"/><path class="cls-3" d="M145.16,861.67c.94-6.92,5.16-22.08,5.16-39,.32,6.11,10.7,6.38,16,3.55a178.91,178.91,0,0,0,4,36.45C175.47,887.17,141.14,891.17,145.16,861.67Z"/><path class="cls-5" d="M199.32,486.71c-.52,6.54-1.45,18-3,27-2.4,14-2.92,22.6-5.2,33.49l0,.15c-5.92,70.4-11.89,190.43-21.77,275.36-.17,1.44-1.33,2.65-3,3.55-5.29,2.83-15.67,2.56-16-3.55-5-96-12-132.52-12-213.94v-.12c-3.73-42.26-5.57-73.52-4.81-95.65a1.28,1.28,0,0,0-1.33-1.33h0A1.28,1.28,0,0,0,130.9,513c.51,20.68-1.22,51.56-2.58,97.66v.12c4.75,81.28-5.95,118.57-5.34,214.68a4.5,4.5,0,0,1-.57,2.29c-2.41,4.34-11.91,4.38-16.25,1.6a4.27,4.27,0,0,1-2.14-2.78C89.19,742.34,81.35,621.69,71.33,551.77a.49.49,0,0,1,0-.12c-.89-20.1-5.18-48-3-69.94.11-1.11,1.07,1.7,1.85,2.5,17.38,17.92,106.67,22.81,127.1,5.15C198.14,488.61,199.41,485.57,199.32,486.71Z"/><path class="cls-3" d="M58.65,479.93c1.08,7.49,3,14-2.36,14.88-2.21.37-4.68-3.42-6.1-8.88a40.91,40.91,0,0,1-3.08,9.17c-5.15,11-10.46,18.83-19.29,15.25-9.87-4-1.32-19.42,3.83-30.42.64-1.36,1.26-2.57,1.87-3.64l.13-.36c6.07-16.48,6.12-42.73,6-49.41a1.06,1.06,0,0,1-.36-.81c0-26.93,4.86-100.64,9.25-140.89,2.93,5.16,20,1.47,25.51-2,0,3.5,0,7,.07,10.58,0,2.46,0,4.92,0,7.35,0,8.57.35,17.13,1,25.23-14.55,29.42-16.31,77.85-18.85,94.69h0c0,12.58-4.38,34.53-.37,49.79A29.6,29.6,0,0,1,58.65,479.93Z"/><path d="M99,233.78l-.11,0c-3.46.59-8,1.35-12.48,2C76,237.28,74.58,256.24,74.51,278c-.47-.57-.8.21,0,4.37v.45c-5.85,3.43-24.12,7.12-27.24,2a3.76,3.76,0,0,1-.27-3.11c3.86-13.46-3.2-48,41.64-48C92.46,233.71,95.87,233.49,99,233.78Z"/><path class="cls-3" d="M207.23,397c-.76,0-11.73-16.78-14.27-35.66-2-14.89-3-23.64-1.88-34.34.64-8.1,1-16.66,1-25.23,0-2.43,0-4.89,0-7.35,0-3.54.06-7.08.07-10.58,5.47,3.43,25.83,4,28.76-1.14,0,22,0,61,7,107C228.23,391.72,213.93,396.74,207.23,397Z"/><path d="M199.64,486.78c-15,21.54-119.62,15.75-131.34-5a7.57,7.57,0,0,1-1-5.05c6-38,20-75,17-97a13.82,13.82,0,0,1-.13-2.46q-1.32-5.78-2.28-11.65c-3.07-9.1-5.47-23.45-6.74-39.58-.64-8.1-1-16.66-1-25.23,0-2.43,0-4.89,0-7.35,0-3.54-.06-7.08-.07-10.58v-.45c0-1.47,0-2.93,0-4.37.06-21.8,1.42-40.76,11.11-42.25,4.15-.64,8.45-1.4,11.69-2l.1,0,.35-.07h0l4.84,0c39.47.26,32.72,3.66,62.14,0l.72.14c1.35.26,4.45.85,8.18,1.51-.95,0-1.88,0-2.77.14l.1,0c3.24.59,7.54,1.35,11.69,2a7.27,7.27,0,0,1,3.35,1.42c8.25,8.23,6.73,37,6.73,62.78,0,27.42-3.58,54.78-8.74,67.55A123,123,0,0,1,180,383.5a10.88,10.88,0,0,1,.29,2.21c1,36,16,61,21,94A9.47,9.47,0,0,1,199.64,486.78Z"/><path d="M223.27,286.54c-3.62,5.16-24.79,1.47-31.56-2v-.45c.94-4.16.56-4.94,0-4.37-.06-19-1.35-35.82-9.6-40.83a10.28,10.28,0,0,0-5.28-2.22c-3.4-.42-6.89-.9-10-1.35,2.63,0,5.46.07,8.51.07,52,0,43.77,34.54,48.25,48A3.33,3.33,0,0,1,223.27,286.54Z"/><path class="cls-6" d="M152.32,202.71c0,10.77-3,27,9,31,12.83,4.28-67.62,6.46-59,0,16-12,9-30,9-30C124.85,203.71,152.32,191.94,152.32,202.71Z"/><path class="cls-3" d="M213.51,135c-1.3,9.9-6.46,17.39-11.52,16.73-2-.28-3.76-1.84-5-4.25-7.14,35.84-41.58,63.07-64.18,63.07-22,0-57.27-27.54-64.26-63.67-1.16,2.81-3,4.69-5.16,5-5,.82-10.41-6.52-12-16.37s1.19-18.52,6.23-19.33c3.62-.58,7.41,3,9.85,8.75C68.93,84.09,81,34.45,133.22,33.7c50-.71,62.95,48.43,64.84,89.07,2.27-4.57,5.48-7.35,8.65-6.94C211.78,116.5,214.82,125.07,213.51,135Z"/><path class="cls-7" d="M142.45,147.3a1.28,1.28,0,0,1,1.19,2c-2.56,3.54-10.89,6.15-11.22,6.15s-12.06-3-12.06-7.64c0-2.41,5.62,0,12.06,0A99.42,99.42,0,0,0,142.45,147.3Z"/><path class="cls-8" d="M187.46,127c-.37,9-6.37,15.18-17.27,15.18-13.66,0-17.68-8.94-17.68-18.48a4.43,4.43,0,0,1,0-.52c2-2.63,6.88-10.24,16.69-10.73a1,1,0,0,1,.17,0H170c-8.76.24-11.07,5.89-11.07,12.85s5.22,12.86,11.65,12.86,11.66-5.76,11.66-12.86c0-6.44-4.29-11.77-9.88-12.72.61.06,1.21.13,1.8.23h0l.65.14c-.16,0-.32-.08-.48-.12,5.93,1,10.83,3.93,12.49,9.14a3.45,3.45,0,0,1,.12.43,1.55,1.55,0,0,1,.07.43v3.62A.53.53,0,0,0,187.46,127Z"/><path class="cls-9" d="M174.85,113l-.65-.14.17,0C174.53,112.91,174.69,112.94,174.85,113Z"/><path class="cls-10" d="M182.25,125.72c0,7.11-5.22,12.86-11.66,12.86s-11.65-5.75-11.65-12.86c0-7,2.31-12.61,11.07-12.85h.58a10.54,10.54,0,0,1,1.7.14h.08C178,114,182.25,119.28,182.25,125.72Z"/><path class="cls-8" d="M111.12,126.13c0,9.54-6,16.07-17.28,16.07-13.66,0-17.68-8.94-17.68-18.48,0-.43,0-.83,0-1.22a1.17,1.17,0,0,1,.2-.44c2.65-3.83,7.21-8.85,14.8-9.57l1.83,0h.62a20.5,20.5,0,0,1,2.22.12H96l.22,0c8.4,1.38,12.73,8.07,14.57,10.51A13.34,13.34,0,0,1,111.12,126.13Z"/><path class="cls-10" d="M105.9,125.33c0,7.1-5.22,12.86-11.66,12.86s-11.65-5.76-11.65-12.86,2.31-12.61,11.07-12.85h.58a7.46,7.46,0,0,1,1,0h.19l.5.07H96l.22,0C101.73,113.7,105.9,119,105.9,125.33Z"/><path d="M111.9,123.28c0,1.17-.33.9-1.09-.12-1.84-2.44-6.17-9.13-14.57-10.51l-.22,0h-.14l-.5-.07h-.19a18,18,0,0,0-3.14-.09q-.42,0-.84.06c-7.59.72-12.15,5.74-14.8,9.57a1.17,1.17,0,0,0-.2.44,1.5,1.5,0,0,0,0,.37v3.62c0,1.11-2.36.4-4.77.4-.79,0-4-1.3-4-2.41,0-.71,2.33-.5,4.84-.91a1.15,1.15,0,0,0,.93-.86c1.35-6.41,9.45-15.11,19.25-15.11C103.19,107.6,111.9,115.06,111.9,123.28Z"/><path d="M150.93,123.93c0,1.17.33.9,1.1-.12,1.88-2.44,6.3-9.13,14.88-10.51a.78.78,0,0,0,.22,0h.14l.51-.07h.2a19.76,19.76,0,0,1,3.2-.09c.29,0,.58,0,.86.06,7.75.73,12.4,5.74,15.1,9.57a1.27,1.27,0,0,1,.21.44,1.5,1.5,0,0,1,.05.37v3.62c0,1.11,2.4.41,4.86.41.81,0,4.05-1.31,4.05-2.41,0-.72-2.38-.51-4.93-.92a1.16,1.16,0,0,1-.95-.86c-1.38-6.41-9.64-15.1-19.65-15.1C159.82,108.26,150.93,115.72,150.93,123.93Z"/><path class="cls-11" d="M187.07,98.8s-14.47-2.41-15.27-2.41c-1.61,0-16.88-1.6-16.88-1.6-.8-.81,8.67-4,16.88-4C179,90.77,187.07,98.8,187.07,98.8Z"/><path class="cls-11" d="M108.6,95.09s-14.65.63-15.44.8c-1.57.33-16.84,1.92-16.84,1.92C75.37,97.19,84,92.08,92,90.38,99.08,88.89,108.6,95.09,108.6,95.09Z"/><path class="cls-11" d="M199.26,127.11c-2.42,3.84-1.28-14-5.37-24.42C188.16,88.1,180.72,69.39,176.82,76,173.57,81.43,165,97.78,164.7,92.51c-1.42-25.37-9.08-35.21-8.79-29.94,1.4,25.09-15,41.44-13.38,36.47,8.13-24.27-14.18-41.54-14.18-41.54-7.84,50.7-44.13,50.08-49.37,50.38l-12.2,15.23c-18.12-12.63-6.08-95,62.91-94.79C202.25,28.52,214.6,102.78,199.26,127.11Z"/><path d="M170.82,863.27c0,14.33-5.71,18.94-13.44,18.94s-13.56-8.66-13.56-19.91c0-7.07,5.82-5.68,13.56-5.68S170.82,858.16,170.82,863.27Z"/><image width="77" height="47" transform="translate(109.33 163.67) rotate(5) scale(0.64)" xlink:href="godt1.png"/><path class="cls-3" d="M211.81,374.14c17.8-3.29,33.59-7.56,42-9.05h0C265.69,361,288,358.16,301,349.15c1.65-1.9,0-16.67,3.75-18.15,10-4,3.31,13.93,6,19,1.12,2.09,4.67-3.21,0,0,3-.37-2.4.76,1,0,9-2,20.32-5,20,5-.35,11.18-2,9-16,15-1.39.6-1,0-1.51-.32h-.38c-17.68-.67-42.5,7.88-48.78,10.16-.12.3-6.44,2.16-6.75,2.27-9.77,3.38-20.19,6.68-39.1,12"/><path class="cls-12" d="M333.91,364.57c.22,5.24-10.44,7.46-15.69,7.69s-4.63-14.57-4.86-19.81c-.13-3,11.62-3.51,16.86-3.73S333.68,359.33,333.91,364.57Z"/><rect class="cls-8" x="365.72" y="10" width="543" height="108" rx="12"/><path d="M410.62,72.12a14.75,14.75,0,0,0,7.49,2.12c4.27,0,6.77-2.26,6.77-5.52,0-3-1.73-4.76-6.09-6.44-5.29-1.87-8.55-4.6-8.55-9.17,0-5,4.18-8.78,10.47-8.78a14.77,14.77,0,0,1,7.15,1.58l-1.15,3.41a13,13,0,0,0-6.15-1.53c-4.42,0-6.1,2.64-6.1,4.84,0,3,2,4.52,6.44,6.25,5.47,2.11,8.25,4.75,8.25,9.5,0,5-3.69,9.31-11.33,9.31a16.72,16.72,0,0,1-8.25-2.06Z"/><path d="M447.73,77.21l-.34-2.93h-.14a8.65,8.65,0,0,1-7.11,3.46c-4.7,0-7.1-3.31-7.1-6.67,0-5.62,5-8.69,14-8.64V62c0-1.92-.53-5.38-5.28-5.38a11.54,11.54,0,0,0-6.05,1.73l-1-2.78a14.39,14.39,0,0,1,7.63-2.07c7.11,0,8.84,4.85,8.84,9.51v8.68a32.5,32.5,0,0,0,.38,5.57Zm-.63-11.85c-4.6-.1-9.84.72-9.84,5.23a3.74,3.74,0,0,0,4,4,5.77,5.77,0,0,0,5.61-3.89,4.21,4.21,0,0,0,.24-1.34ZM438,47.07c0-2.55,1.87-4.56,4.9-4.56A4.45,4.45,0,0,1,447.68,47a4.5,4.5,0,0,1-4.8,4.41C440,51.43,438,49.51,438,47.07Zm7.3-.1a2.49,2.49,0,0,0-2.5-2.64,2.46,2.46,0,0,0-2.35,2.74,2.43,2.43,0,1,0,4.85-.1Z"/><path d="M478.07,43.13V71.21c0,2.07,0,4.42.19,6h-3.8l-.19-4h-.09a8.6,8.6,0,0,1-7.92,4.56c-5.62,0-9.94-4.75-9.94-11.81-.05-7.73,4.75-12.48,10.42-12.48,3.55,0,5.95,1.68,7,3.55h.09V43.13Zm-4.23,20.31a7.7,7.7,0,0,0-.19-1.78,6.22,6.22,0,0,0-6.1-4.9c-4.37,0-7,3.84-7,9,0,4.7,2.31,8.59,6.87,8.59a6.35,6.35,0,0,0,6.19-5,7.48,7.48,0,0,0,.19-1.82Z"/><path d="M497.94,77.21l-.34-2.93h-.14a8.66,8.66,0,0,1-7.11,3.46c-4.7,0-7.1-3.31-7.1-6.67,0-5.62,5-8.69,14-8.64V62c0-1.92-.53-5.38-5.28-5.38a11.54,11.54,0,0,0-6.05,1.73l-1-2.78a14.39,14.39,0,0,1,7.63-2.07c7.1,0,8.83,4.85,8.83,9.51v8.68a32.43,32.43,0,0,0,.39,5.57Zm-.63-11.85c-4.61-.1-9.84.72-9.84,5.23a3.74,3.74,0,0,0,4,4,5.77,5.77,0,0,0,5.61-3.89,4.21,4.21,0,0,0,.24-1.34Z"/><path d="M508.21,60.27c0-2.4,0-4.37-.2-6.29h3.75l.24,3.84h.09a8.57,8.57,0,0,1,7.69-4.37c3.21,0,8.2,1.92,8.2,9.89V77.21h-4.22V63.82c0-3.74-1.39-6.86-5.38-6.86a6.2,6.2,0,0,0-6,6.28v14h-4.22Z"/><path d="M532.11,83.12A68.77,68.77,0,0,0,535,71.64l4.7-.48a58.08,58.08,0,0,1-4.56,11.67Z"/><path d="M575,54c-.1,1.68-.2,3.55-.2,6.38V73.85c0,5.33-1,8.6-3.31,10.61S566,87.25,563,87.25a15.11,15.11,0,0,1-7.73-1.92l1.06-3.22a13.13,13.13,0,0,0,6.82,1.82c4.32,0,7.49-2.25,7.49-8.11V73.23h-.1a8.3,8.3,0,0,1-7.39,3.89c-5.76,0-9.89-4.9-9.89-11.33,0-7.87,5.13-12.34,10.46-12.34a7.73,7.73,0,0,1,7.25,4h.1l.19-3.5Zm-4.37,9.17a6.19,6.19,0,0,0-6.15-6.39c-4,0-6.91,3.41-6.91,8.79,0,4.56,2.3,8.35,6.86,8.35a6.17,6.17,0,0,0,5.86-4.32,7.38,7.38,0,0,0,.34-2.26Z"/><path d="M602.81,65.4c0,8.6-5.95,12.34-11.56,12.34-6.29,0-11.14-4.61-11.14-11.95,0-7.78,5.09-12.34,11.52-12.34C598.3,53.45,602.81,58.3,602.81,65.4Zm-18.43.24c0,5.09,2.93,8.93,7.06,8.93s7-3.79,7-9c0-3.94-2-8.93-7-8.93S584.38,61.23,584.38,65.64Z"/><path d="M628.21,43.13V71.21c0,2.07,0,4.42.19,6h-3.79l-.2-4h-.09a8.6,8.6,0,0,1-7.92,4.56c-5.62,0-9.94-4.75-9.94-11.81-.05-7.73,4.75-12.48,10.42-12.48,3.55,0,6,1.68,7,3.55H624V43.13ZM624,63.44a7.7,7.7,0,0,0-.19-1.78,6.21,6.21,0,0,0-6.1-4.9c-4.37,0-7,3.84-7,9,0,4.7,2.31,8.59,6.87,8.59a6.35,6.35,0,0,0,6.19-5,7.48,7.48,0,0,0,.19-1.82Z"/><path d="M640.3,47.31V54h6.05V57.2H640.3V69.72c0,2.88.82,4.52,3.17,4.52a9.61,9.61,0,0,0,2.45-.29l.19,3.17a10.49,10.49,0,0,1-3.74.57,5.88,5.88,0,0,1-4.57-1.77c-1.2-1.25-1.63-3.32-1.63-6V57.2h-3.6V54h3.6V48.41Z"/><path d="M681.29,54c-.09,1.68-.19,3.55-.19,6.38V73.85c0,5.33-1.05,8.6-3.31,10.61s-5.52,2.79-8.45,2.79a15.09,15.09,0,0,1-7.73-1.92l1.06-3.22a13.06,13.06,0,0,0,6.81,1.82c4.32,0,7.49-2.25,7.49-8.11V73.23h-.09a8.31,8.31,0,0,1-7.4,3.89c-5.76,0-9.88-4.9-9.88-11.33,0-7.87,5.13-12.34,10.46-12.34a7.73,7.73,0,0,1,7.25,4h.1l.19-3.5Zm-4.37,9.17a6.15,6.15,0,0,0-6.14-6.39c-4,0-6.91,3.41-6.91,8.79,0,4.56,2.3,8.35,6.86,8.35a6.17,6.17,0,0,0,5.86-4.32,7.37,7.37,0,0,0,.33-2.26Z"/><path d="M701,77.21l-.33-2.93h-.15a8.63,8.63,0,0,1-7.1,3.46c-4.71,0-7.11-3.31-7.11-6.67,0-5.62,5-8.69,14-8.64V62c0-1.92-.53-5.38-5.28-5.38a11.54,11.54,0,0,0-6.05,1.73l-1-2.78a14.43,14.43,0,0,1,7.64-2.07c7.1,0,8.83,4.85,8.83,9.51v8.68a32.5,32.5,0,0,0,.38,5.57Zm-.62-11.85c-4.61-.1-9.84.72-9.84,5.23a3.74,3.74,0,0,0,4,4,5.78,5.78,0,0,0,5.62-3.89,4.51,4.51,0,0,0,.24-1.34Zm-9.07-18.29c0-2.55,1.87-4.56,4.89-4.56A4.45,4.45,0,0,1,700.92,47a4.5,4.5,0,0,1-4.8,4.41C693.24,51.43,691.28,49.51,691.28,47.07Zm7.29-.1a2.44,2.44,0,1,0-4.85.1,2.43,2.43,0,1,0,4.85-.1Z"/><path d="M713.59,66.36c.1,5.72,3.75,8.07,8,8.07a15.35,15.35,0,0,0,6.44-1.2l.72,3A18.89,18.89,0,0,1,721,77.69c-7.16,0-11.43-4.7-11.43-11.71s4.13-12.53,10.9-12.53c7.58,0,9.6,6.67,9.6,11a17.78,17.78,0,0,1-.14,2Zm12.39-3c0-2.69-1.1-6.86-5.86-6.86-4.27,0-6.14,3.93-6.48,6.86Z"/><path d="M740.38,47.31V54h6V57.2h-6V69.72c0,2.88.82,4.52,3.17,4.52A9.61,9.61,0,0,0,746,74l.19,3.17a10.52,10.52,0,0,1-3.75.57,5.86,5.86,0,0,1-4.56-1.77c-1.2-1.25-1.63-3.32-1.63-6V57.2h-3.6V54h3.6V48.41Z"/><path d="M750.36,74.76a2.81,2.81,0,0,1,2.83-3,2.76,2.76,0,0,1,2.84,3,2.84,2.84,0,1,1-5.67,0Zm1.2-6.86-.67-23h4.61l-.67,23Z"/><polygon class="cls-8" points="365.72 164 365.72 98 407.72 98 365.72 164"/><rect class="cls-1" x="394" y="264" width="169" height="27"/></svg>
