<svg id="Layer_2" data-name="Layer 2" xmlns="http://www.w3.org/2000/svg" xmlns:xlink="http://www.w3.org/1999/xlink" width="916" height="923" viewBox="0 0 916 923"><defs><style>.cls-1{fill:#d4e8f2;}.cls-11,.cls-2,.cls-8{fill:none;}.cls-2,.cls-5{stroke:#000;}.cls-11,.cls-15,.cls-2,.cls-5,.cls-8{stroke-miterlimit:10;}.cls-2{stroke-width:2px;}.cls-3{fill:#f8b185;}.cls-4{fill:url(#linear-gradient);}.cls-5{fill:url(#linear-gradient-2);}.cls-6{fill:url(#linear-gradient-3);}.cls-7{fill:#eb976b;}.cls-8{stroke:#eb976b;}.cls-9{fill:#d49143;}.cls-10{fill:#4a0a0a;}.cls-11{stroke:#be4e5e;}.cls-12{fill:#ef8377;}.cls-13{fill:#be4e5e;}.cls-14{fill:#fff;}.cls-15{fill:#747b85;stroke:#567b85;}.cls-16{fill:#ea976b;}</style><linearGradient id="linear-gradient" x1="242.7" y1="250.45" x2="191.13" y2="62.54" gradientUnits="userSpaceOnUse"><stop offset="0" stop-color="#e7a652"/><stop offset="0.01" stop-color="#e5a350"/><stop offset="0.09" stop-color="#da9847"/><stop offset="0.2" stop-color="#d49141"/><stop offset="0.51" stop-color="#d28f40"/><stop offset="1" stop-color="#c17c2e"/></linearGradient><linearGradient id="linear-gradient-2" x1="151.65" y1="517.58" x2="164.93" y2="828.05" gradientUnits="userSpaceOnUse"><stop offset="0" stop-color="#0f0d1a"/><stop offset="1" stop-color="#00000b"/></linearGradient><linearGradient id="linear-gradient-3" x1="132.42" y1="265.99" x2="162.04" y2="231.26" gradientUnits="userSpaceOnUse"><stop offset="0" stop-color="#f8b185"/><stop offset="1" stop-color="#ea976b"/></linearGradient></defs><title>middel</title><rect class="cls-1" width="916" height="923"/><line class="cls-2" x1="124.68" y1="851.2" x2="118.77" y2="880.69"/><line class="cls-2" x1="138.68" y1="851.2" x2="143.5" y2="881.1"/><path class="cls-3" d="M119,881.66c.94-6.92,5.16-22.08,5.16-39,.32,6.11,10.7,6.38,16,3.55a178.91,178.91,0,0,0,4,36.45C149.33,907.16,115,911.16,119,881.66Z"/><path d="M144.68,883.27c0,14.32-5.71,18.93-13.44,18.93s-13.56-8.65-13.56-19.91c0-7.07,5.83-5.68,13.56-5.68S144.68,878.15,144.68,883.27Z"/><line class="cls-2" x1="168.78" y1="851.53" x2="162.88" y2="881.01"/><line class="cls-2" x1="182.78" y1="851.53" x2="187.6" y2="881.42"/><path class="cls-4" d="M236.1,270.68c-34.41-5.33-55.45-26.19-55.45-58.48,0-14,10.66-26.63,25.58-36.52-.92,0-1.85.06-2.79.06-39.85,0-72.16-30.61-72.16-68.36S163.59,39,203.44,39s72.15,30.6,72.15,68.35c0,4.29,1.11,8.48.31,12.55,0,3-.31,4.16-.31,8,0,13,.32,21.25,0,26.58,0,.1,0-.07,0,0h0c-.8,13-2.6,12.7-.48,34A25.53,25.53,0,0,0,294,210.75a52.14,52.14,0,0,0,12.75,1.45C307.49,212.2,299.9,280.56,236.1,270.68Z"/><path class="cls-3" d="M163.12,882c.94-6.92,5.16-22.08,5.16-39,.32,6.11,10.7,6.38,16,3.55a178.91,178.91,0,0,0,4,36.45C193.43,907.49,159.1,911.49,163.12,882Z"/><path class="cls-5" d="M217.28,507c-.52,6.54-1.45,18-3,27-2.4,14-2.92,22.6-5.2,33.49l0,.15c-5.92,70.4-11.89,190.43-21.77,275.36-.17,1.44-1.33,2.65-3,3.55-5.29,2.83-15.67,2.56-16-3.55-5-96-12-132.52-12-213.94V629c-3.73-42.26-5.57-73.52-4.81-95.65a1.28,1.28,0,0,0-1.33-1.33h0a1.28,1.28,0,0,0-1.26,1.32c.51,20.68-1.22,51.56-2.58,97.66v.12c4.75,81.28-5.95,118.57-5.34,214.68a4.5,4.5,0,0,1-.57,2.29c-2.41,4.34-11.91,4.38-16.25,1.6a4.27,4.27,0,0,1-2.14-2.78C107.15,762.66,99.31,642,89.29,572.09a.49.49,0,0,1,0-.12c-.89-20.1-5.18-48-3-69.94.11-1.11,1.07,1.7,1.85,2.5,17.38,17.92,106.67,22.81,127.1,5.15C216.1,508.93,217.37,505.89,217.28,507Z"/><path class="cls-3" d="M76.61,500.25c1.08,7.49,3,14-2.36,14.88-2.21.37-4.68-3.42-6.1-8.88a40.91,40.91,0,0,1-3.08,9.17c-5.15,11-10.46,18.83-19.29,15.25-9.87-4-1.32-19.42,3.83-30.42.64-1.36,1.26-2.57,1.87-3.64l.13-.36c6.07-16.48,6.12-42.73,6-49.41a1.06,1.06,0,0,1-.36-.81c0-26.93,4.86-100.64,9.25-140.89,2.93,5.16,20,1.47,25.51-2,0,3.5,0,7,.07,10.58,0,2.46,0,4.92,0,7.35,0,8.57.35,17.13,1,25.23C78.58,375.76,76.82,424.19,74.28,441h0c0,12.58-4.38,34.53-.37,49.79A29.6,29.6,0,0,1,76.61,500.25Z"/><path d="M116.93,254.1l-.11,0c-3.46.59-8,1.35-12.48,2C94,257.6,92.54,276.56,92.48,298.36c-.47-.57-.8.21,0,4.37v.45c-5.84,3.43-24.11,7.12-27.24,2A3.8,3.8,0,0,1,65,302c3.87-13.46-3.2-48,41.65-48C110.43,254,113.83,253.81,116.93,254.1Z"/><path class="cls-3" d="M257.56,532.39c-8.83,3.58-14.14-4.25-19.29-15.25a40.91,40.91,0,0,1-3.08-9.17c-1.42,5.46-3.89,9.25-6.1,8.88-5.36-.88-3.44-7.39-2.36-14.88a29.6,29.6,0,0,1,2.7-9.42c4-15.26-.37-37.21-.37-49.79h0c-2.54-16.84-4.3-65.27-18.85-94.69.64-8.1,1-16.66,1-25.23,0-2.43,0-4.89,0-7.35,0-3.54.06-7.08.07-10.58,5.47,3.43,22.58,7.12,25.51,2,4.39,40.25,9.25,114,9.25,140.89a1.06,1.06,0,0,1-.36.81c-.09,6.68,0,32.93,6,49.41l.13.36c.61,1.07,1.23,2.28,1.87,3.64C258.88,513,267.43,528.39,257.56,532.39Z"/><path d="M217.6,507.1c-15,21.54-119.62,15.75-131.34-5a7.57,7.57,0,0,1-1-5.05c6-38,20-75,17-97a13.82,13.82,0,0,1-.13-2.46q-1.32-5.77-2.28-11.65c-3.07-9.1-5.47-23.45-6.74-39.58-.64-8.1-1-16.66-1-25.23,0-2.43,0-4.89,0-7.35,0-3.54-.06-7.08-.07-10.58v-.45c0-1.47,0-2.93,0-4.37.06-21.8,1.42-40.76,11.11-42.25,4.15-.64,8.45-1.4,11.69-2l.1,0,.35-.07h0l4.84,0c39.47.26,32.72,3.66,62.14,0l.72.14c1.35.26,4.45.85,8.18,1.51-1,0-1.88,0-2.77.14l.1,0c3.24.59,7.54,1.35,11.69,2a7.27,7.27,0,0,1,3.35,1.42c8.25,8.23,6.73,37,6.73,62.78,0,27.42-3.58,54.78-8.74,67.55A123,123,0,0,1,198,403.82a10.88,10.88,0,0,1,.29,2.21c1,36,16,61,21,94A9.47,9.47,0,0,1,217.6,507.1Z"/><path d="M241.24,306.86c-3.63,5.16-24.8,1.47-31.57-2v-.45c1-4.16.56-4.94,0-4.37-.06-19-1.35-35.82-9.6-40.83A10.31,10.31,0,0,0,194.8,257c-3.4-.42-6.89-.9-10-1.35,2.64,0,5.47.07,8.51.07,52,0,43.78,34.54,48.26,48A3.36,3.36,0,0,1,241.24,306.86Z"/><path class="cls-6" d="M170.28,223c0,10.76-3,27,9,31,12.84,4.27-67.61,6.46-59,0,16-12,9-30,9-30C142.81,224,170.28,212.26,170.28,223Z"/><path class="cls-3" d="M231.48,155.29c-1.3,9.9-6.46,17.39-11.53,16.73-2-.28-3.76-1.84-5-4.25-7.14,35.84-41.57,63.07-64.17,63.07-22,0-57.28-27.54-64.27-63.67-1.16,2.81-2.94,4.68-5.15,5-5,.82-10.42-6.52-12-16.37s1.2-18.52,6.24-19.33c3.62-.58,7.4,3,9.84,8.75,1.45-40.85,13.5-90.49,65.75-91.24,50-.71,62.94,48.43,64.83,89.07,2.28-4.57,5.48-7.35,8.66-6.94C229.74,136.82,232.79,145.39,231.48,155.29Z"/><path class="cls-7" d="M160.42,167.62a1.27,1.27,0,0,1,1.18,2c-2.55,3.55-10.88,6.15-11.22,6.15s-12-3-12-7.63c0-2.41,5.62,0,12,0A99.84,99.84,0,0,0,160.42,167.62Z"/><path class="cls-8" d="M192.81,133.31l-.64-.15.17,0C192.5,133.23,192.66,133.26,192.81,133.31Z"/><path class="cls-9" d="M205.43,113.3s-14.41,2.75-15.16,3c-1.51.55-16.39,4.33-16.39,4.33-1-.48,6.74-6.77,14.44-9.61C195.11,108.55,205.43,113.3,205.43,113.3Z"/><path class="cls-9" d="M126.57,115.41s-14.66.63-15.44.8c-1.57.33-16.85,1.91-16.85,1.91-1-.62,7.65-5.72,15.69-7.42C117,109.21,126.57,115.41,126.57,115.41Z"/><path class="cls-10" d="M177.45,190.16a0,0,0,0,0,0,0c0-.11-.11-.21-.27-.29l.62-.16A4.89,4.89,0,0,0,177.45,190.16Z"/><line class="cls-11" x1="172.21" y1="187.83" x2="174.93" y2="190.78"/><line class="cls-11" x1="138.54" y1="193.22" x2="136.84" y2="196.67"/><path class="cls-12" d="M174.09,189.72v.05l-.16.29h0c-2.57,4.94-3.63,15.87-16.88,17.24-14,1.46-13.45-8.3-19.68-12.32l.42,0a.31.31,0,0,1-.09-.19c-.07-.88,3.24-.66,8.43-1.35,4.24-.56,8.74,1.42,10,1.91a18.78,18.78,0,0,1,9.51-4.49c4.39-.58,7.32-2,8.24-1.42A.41.41,0,0,1,174.09,189.72Z"/><path class="cls-13" d="M174.16,189.73a.07.07,0,0,1,0,.05,1.68,1.68,0,0,0-.15.3h0c-5.74,4.84-11.29,9.61-17.14,10.39-5.21.69-13.26-2.26-19.48-6.28,0,0,.21.79.47.77a.29.29,0,0,1-.08-.18c-.07-.89,3.24-.67,8.42-1.35,4.24-.56,8.75,1.41,10,1.9a18.73,18.73,0,0,1,9.51-4.49c4.39-.58,7.32-2,8.24-1.42A.44.44,0,0,1,174.16,189.73Z"/><path class="cls-9" d="M217.3,148.85c-2.41,3.88-1.28-14.19-5.39-24.77-5.74-14.79-13.19-33.76-17.08-27.11-3.25,5.55-11.81,22.12-12.11,16.77C181.28,88,173.61,78,173.91,83.39c1.42,25.43-15,42-13.36,37,8.12-24.59-14.21-42.12-14.21-42.12-7.81,51.4-44.1,50.74-49.34,51L84.82,144.69c-18.13-12.82-6.15-96.29,62.83-96C220.21,48.9,232.62,124.19,217.3,148.85Z"/><path d="M188.78,883.59c0,14.33-5.71,18.94-13.44,18.94s-13.56-8.66-13.56-19.91c0-7.07,5.83-5.68,13.56-5.68S188.78,878.48,188.78,883.59Z"/><path class="cls-14" d="M135.89,149.37c0,8.35-8.84,9.62-17.19,9.62s-15.82-.58-15.82-8.94,3.51-19.94,15.82-21.31S135.89,141,135.89,149.37Z"/><ellipse class="cls-15" cx="119.04" cy="150.4" rx="10.66" ry="7.91"/><path class="cls-16" d="M136.52,148.79c0,2.64-8.09-7-16.45-7s-16.5,6.88-16.55,7c-3.44,7.62-1.67-20.4,15.81-20.63C133.82,128,136.36,140.44,136.52,148.79Z"/><path d="M136.92,150.4c.25.76-.12,1.49-.69.69-1.39-1.92-5.71-3.45-13.11-5.55l-.19-.06-.08,0h0l-.44-.12-.17,0a21.6,21.6,0,0,0-2.81-.5c-.26,0-.51-.06-.76-.07a19.48,19.48,0,0,0-14.29,4.43.72.72,0,0,0-.23.27.73.73,0,0,0-.08.25l-.39,2.46c-.11.75-2.15-.06-4.32-.39-.71-.11-3.42-1.44-3.3-2.19.07-.49,2.14,0,4.43.05a1,1,0,0,0,.93-.46c1.88-4.16,10.07-8.94,18.87-7.57C129.89,143.08,136.23,148.34,136.92,150.4Z"/><path class="cls-14" d="M165,151.68c0,8.35,8.84,9.62,17.19,9.62s15.82-.58,15.82-8.93-3.52-20-15.82-21.32S165,143.32,165,151.68Z"/><ellipse class="cls-15" cx="181.8" cy="152.71" rx="10.66" ry="7.91"/><path class="cls-16" d="M164.32,151.1c-.06,2.64,8.09-7,16.45-7s16.5,6.88,16.55,7c3.44,7.62,1.67-20.39-15.81-20.63C167,130.28,164.48,142.75,164.32,151.1Z"/><path d="M163.92,152.71c-.26.76.12,1.49.69.69,1.39-1.91,5.71-3.45,13.11-5.55l.19-.06.08,0h0l.44-.11.17,0a21.3,21.3,0,0,1,2.81-.5c.26,0,.51-.06.76-.07a19.48,19.48,0,0,1,14.29,4.43.83.83,0,0,1,.23.27.73.73,0,0,1,.08.25l.38,2.46c.12.75,2.16,0,4.32-.39.72-.11,3.43-1.44,3.31-2.19-.07-.49-2.14,0-4.44,0a1,1,0,0,1-.92-.46c-1.88-4.16-10.07-8.94-18.87-7.57C171,145.39,164.61,150.65,163.92,152.71Z"/><rect class="cls-14" x="356" y="14" width="543" height="166" rx="12"/><path d="M401.48,49.29a60.36,60.36,0,0,1,8.88-.67c6,0,10.27,1.39,13.1,4S428,59,428,64.27s-1.63,9.6-4.65,12.57-8,4.66-14.31,4.66a67.48,67.48,0,0,1-7.58-.38Zm4.17,28.61a26.73,26.73,0,0,0,4.23.24c8.93,0,13.78-5,13.78-13.73,0-7.63-4.28-12.48-13.11-12.48a23.84,23.84,0,0,0-4.9.43Z"/><path d="M452.89,74.88c0,2.4.05,4.51.19,6.33h-3.75l-.24-3.79H449a8.75,8.75,0,0,1-7.68,4.32c-3.65,0-8-2-8-10.18V58h4.23V70.84c0,4.42,1.34,7.4,5.18,7.4a6.12,6.12,0,0,0,5.57-3.84,6.24,6.24,0,0,0,.38-2.16V58h4.23Z"/><path d="M490.09,58c-.1,1.68-.2,3.55-.2,6.38V77.85c0,5.33-1.05,8.6-3.31,10.61s-5.52,2.79-8.45,2.79a15.11,15.11,0,0,1-7.73-1.92l1.06-3.22a13.13,13.13,0,0,0,6.82,1.82c4.32,0,7.49-2.25,7.49-8.11V77.23h-.1a8.3,8.3,0,0,1-7.39,3.89c-5.76,0-9.89-4.9-9.89-11.33,0-7.87,5.14-12.34,10.46-12.34a7.72,7.72,0,0,1,7.25,4h.1l.19-3.5Zm-4.37,9.17a6.19,6.19,0,0,0-6.15-6.39c-4,0-6.91,3.41-6.91,8.79,0,4.56,2.3,8.35,6.87,8.35a6.17,6.17,0,0,0,5.85-4.32,7.38,7.38,0,0,0,.34-2.26Z"/><path d="M512.55,59.13l2-2.88,1.87,1.3-2,3a12,12,0,0,1,3.51,8.88c0,8.55-5.91,12.34-11.33,12.34a10.93,10.93,0,0,1-6-1.63L498.58,83,496.8,81.6l2-2.88a12,12,0,0,1-3.6-9c0-7.73,5.09-12.29,11.42-12.29A11,11,0,0,1,512.55,59.13ZM510.63,62a6.28,6.28,0,0,0-4.08-1.39c-5.19,0-7.25,4.8-7.25,9A10.06,10.06,0,0,0,501,75.45l.09,0Zm-8.07,15.22a5.75,5.75,0,0,0,3.89,1.34c4.42,0,7.35-3.79,7.35-9a10.47,10.47,0,0,0-1.63-5.67h-.1Z"/><path d="M523.25,65.23c0-2.74,0-5.09-.19-7.25h3.7l.14,4.56h.19a7,7,0,0,1,6.44-5.09,4.94,4.94,0,0,1,1.2.14v4a6.22,6.22,0,0,0-1.44-.14c-3,0-5.09,2.25-5.67,5.42a11.55,11.55,0,0,0-.19,2V81.21h-4.18Z"/><path d="M569.19,47.13V75.21c0,2.07,0,4.42.19,6h-3.79l-.19-4h-.1a8.6,8.6,0,0,1-7.92,4.56c-5.62,0-9.94-4.75-9.94-11.81,0-7.73,4.76-12.48,10.42-12.48,3.55,0,5.95,1.68,7,3.55H565V47.13ZM565,67.44a7.19,7.19,0,0,0-.19-1.78,6.21,6.21,0,0,0-6.09-4.9c-4.37,0-7,3.84-7,9,0,4.7,2.3,8.59,6.86,8.59a6.35,6.35,0,0,0,6.19-5,7,7,0,0,0,.19-1.82Z"/><path d="M578.55,70.36c.09,5.72,3.74,8.07,8,8.07a15.33,15.33,0,0,0,6.43-1.2l.72,3a18.85,18.85,0,0,1-7.73,1.44c-7.15,0-11.43-4.7-11.43-11.71s4.13-12.53,10.9-12.53c7.59,0,9.6,6.67,9.6,11a15.58,15.58,0,0,1-.14,2Zm12.38-3c.05-2.69-1.1-6.86-5.85-6.86-4.28,0-6.15,3.93-6.49,6.86Z"/><path d="M605.33,51.31V58h6V61.2h-6V73.72c0,2.88.82,4.52,3.17,4.52A9.61,9.61,0,0,0,611,78l.19,3.17a10.49,10.49,0,0,1-3.74.57,5.88,5.88,0,0,1-4.57-1.77c-1.2-1.25-1.63-3.32-1.63-6V61.2h-3.6V58h3.6V52.41Z"/><path d="M626.74,81.21v-20h-3.27V58h3.27V56.73c0-6.14,3.6-10.13,10.13-10.13a11.55,11.55,0,0,1,5.9,1.54l-1.2,3.21a8.89,8.89,0,0,0-4.9-1.34c-4.46,0-5.76,3.12-5.76,6.82V58H644.4V81.21h-4.17v-20h-9.32v20Z"/><path d="M651.41,64.27c0-2.4,0-4.37-.19-6.29H655l.24,3.84h.1A8.54,8.54,0,0,1,663,57.45c3.22,0,8.21,1.92,8.21,9.89V81.21H667V67.82c0-3.74-1.39-6.86-5.37-6.86a6.2,6.2,0,0,0-6,6.28v14h-4.22Z"/><path d="M683,51.31V58h6V61.2h-6V73.72c0,2.88.81,4.52,3.16,4.52a9.49,9.49,0,0,0,2.45-.29l.19,3.17a10.45,10.45,0,0,1-3.74.57,5.86,5.86,0,0,1-4.56-1.77c-1.2-1.25-1.63-3.32-1.63-6V61.2h-3.6V58h3.6V52.41Z"/><path d="M692.93,78.76a2.81,2.81,0,0,1,2.83-3,2.76,2.76,0,0,1,2.83,3,2.79,2.79,0,0,1-2.83,3A2.82,2.82,0,0,1,692.93,78.76Zm1.2-6.86-.67-23h4.6l-.67,23Z"/><path d="M719.28,48.86V81.21H715.1V48.86Z"/><path d="M726.91,64.27c0-2.4,0-4.37-.19-6.29h3.74l.25,3.84h.09a8.54,8.54,0,0,1,7.68-4.37c3.22,0,8.21,1.92,8.21,9.89V81.21h-4.22V67.82c0-3.74-1.4-6.86-5.38-6.86a6,6,0,0,0-5.67,4.32,6.05,6.05,0,0,0-.28,2v14h-4.23Z"/><path d="M773.57,58c-.1,1.68-.19,3.55-.19,6.38V77.85c0,5.33-1.06,8.6-3.32,10.61s-5.52,2.79-8.44,2.79a15.06,15.06,0,0,1-7.73-1.92l1.05-3.22a13.13,13.13,0,0,0,6.82,1.82c4.32,0,7.49-2.25,7.49-8.11V77.23h-.1a8.28,8.28,0,0,1-7.39,3.89c-5.76,0-9.89-4.9-9.89-11.33,0-7.87,5.14-12.34,10.47-12.34a7.71,7.71,0,0,1,7.24,4h.1l.19-3.5Zm-4.37,9.17a6.19,6.19,0,0,0-6.14-6.39c-4,0-6.92,3.41-6.92,8.79,0,4.56,2.31,8.35,6.87,8.35a6.17,6.17,0,0,0,5.85-4.32,7.38,7.38,0,0,0,.34-2.26Z"/><path d="M782.74,70.36c.09,5.72,3.74,8.07,8,8.07a15.35,15.35,0,0,0,6.44-1.2l.72,3a18.89,18.89,0,0,1-7.73,1.44C783,81.69,778.7,77,778.7,70s4.13-12.53,10.9-12.53c7.58,0,9.6,6.67,9.6,11a17.78,17.78,0,0,1-.14,2Zm12.38-3c0-2.69-1.1-6.86-5.86-6.86-4.27,0-6.14,3.93-6.48,6.86Z"/><path d="M804.43,64.27c0-2.4,0-4.37-.19-6.29H808l.24,3.84h.1A8.54,8.54,0,0,1,816,57.45c3.22,0,8.21,1.92,8.21,9.89V81.21H820V67.82c0-3.74-1.39-6.86-5.37-6.86a6,6,0,0,0-5.67,4.32,6.05,6.05,0,0,0-.28,2v14h-4.23Z"/><path d="M400.76,134.49a11,11,0,0,0,5.57,1.68c3.07,0,4.51-1.53,4.51-3.45s-1.2-3.12-4.32-4.28c-4.18-1.48-6.15-3.79-6.15-6.57,0-3.75,3-6.82,8-6.82a11.55,11.55,0,0,1,5.71,1.44l-1.05,3.07a9.1,9.1,0,0,0-4.76-1.34c-2.49,0-3.88,1.44-3.88,3.17,0,1.92,1.39,2.78,4.41,3.93,4,1.54,6.1,3.56,6.1,7,0,4.08-3.17,7-8.69,7a13.26,13.26,0,0,1-6.53-1.58Z"/><path d="M425.43,108.91v6.67h6.05v3.22h-6.05v12.52c0,2.88.82,4.52,3.17,4.52a9.61,9.61,0,0,0,2.45-.29l.19,3.17a10.49,10.49,0,0,1-3.74.57,5.88,5.88,0,0,1-4.57-1.77c-1.2-1.25-1.63-3.32-1.63-6.05V118.8h-3.6v-3.22h3.6V110Z"/><path d="M436.23,122.83c0-2.74-.05-5.09-.19-7.25h3.69l.15,4.56h.19a7,7,0,0,1,6.43-5.09,4.82,4.82,0,0,1,1.2.14v4a6.11,6.11,0,0,0-1.44-.14c-3,0-5.09,2.25-5.66,5.42a11.55,11.55,0,0,0-.19,2v12.38h-4.18Z"/><path d="M464.55,138.81l-.34-2.93h-.14a8.63,8.63,0,0,1-7.1,3.46c-4.71,0-7.11-3.31-7.11-6.67,0-5.62,5-8.69,14-8.64v-.48c0-1.92-.53-5.38-5.28-5.38a11.54,11.54,0,0,0-6.05,1.73l-1-2.78a14.42,14.42,0,0,1,7.63-2.07c7.11,0,8.84,4.85,8.84,9.51v8.68a32.5,32.5,0,0,0,.38,5.57ZM463.93,127c-4.61-.1-9.84.72-9.84,5.23a3.74,3.74,0,0,0,4,4,5.8,5.8,0,0,0,5.62-3.89,4.51,4.51,0,0,0,.24-1.34Z"/><path d="M475.25,138.81v-20H472v-3.22h3.26v-1.1c0-3.27.72-6.25,2.69-8.12a8.13,8.13,0,0,1,5.67-2.16,10,10,0,0,1,3.6.67l-.58,3.27a6.27,6.27,0,0,0-2.69-.53c-3.6,0-4.51,3.17-4.51,6.72v1.25h5.62v3.22h-5.62v20Z"/><path d="M499,104.73h4.23v14.5h.09a7.89,7.89,0,0,1,3-3,8.68,8.68,0,0,1,4.32-1.2c3.12,0,8.11,1.92,8.11,9.94v13.82h-4.22V125.47c0-3.75-1.4-6.91-5.38-6.91a6.05,6.05,0,0,0-5.66,4.22,5.13,5.13,0,0,0-.29,2v14H499Z"/><path d="M528,128c.1,5.72,3.75,8.07,8,8.07a15.35,15.35,0,0,0,6.44-1.2l.72,3a18.89,18.89,0,0,1-7.73,1.44c-7.15,0-11.43-4.7-11.43-11.71s4.13-12.53,10.9-12.53c7.58,0,9.6,6.67,9.6,11a17.78,17.78,0,0,1-.14,2Zm12.39-3c.05-2.69-1.1-6.86-5.86-6.86-4.27,0-6.14,3.93-6.48,6.86Z"/><path d="M549.7,122.83c0-2.74-.05-5.09-.19-7.25h3.7l.14,4.56h.19a7,7,0,0,1,6.43-5.09,4.82,4.82,0,0,1,1.2.14v4a6.11,6.11,0,0,0-1.44-.14c-3,0-5.09,2.25-5.66,5.42a11.55,11.55,0,0,0-.19,2v12.38H549.7Z"/><path d="M567.27,138.81v-20H564v-3.22h3.27v-1.1c0-3.27.72-6.25,2.69-8.12a8.09,8.09,0,0,1,5.66-2.16,9.89,9.89,0,0,1,3.6.67l-.57,3.27a6.3,6.3,0,0,0-2.69-.53c-3.6,0-4.52,3.17-4.52,6.72v1.25h5.62v3.22h-5.62v20Z"/><path d="M580.85,122.83c0-2.74-.05-5.09-.19-7.25h3.7l.14,4.56h.19a7,7,0,0,1,6.43-5.09,5,5,0,0,1,1.21.14v4a6.25,6.25,0,0,0-1.45-.14c-3,0-5.08,2.25-5.66,5.42a11.55,11.55,0,0,0-.19,2v12.38h-4.18Z"/><path d="M609.17,138.81l-.33-2.93h-.15a8.63,8.63,0,0,1-7.1,3.46c-4.71,0-7.11-3.31-7.11-6.67,0-5.62,5-8.69,14-8.64v-.48c0-1.92-.53-5.38-5.28-5.38a11.57,11.57,0,0,0-6,1.73l-1-2.78a14.43,14.43,0,0,1,7.64-2.07c7.1,0,8.83,4.85,8.83,9.51v8.68a33.54,33.54,0,0,0,.38,5.57ZM608.55,127c-4.61-.1-9.84.72-9.84,5.23a3.74,3.74,0,0,0,4,4,5.78,5.78,0,0,0,5.62-3.89,4.51,4.51,0,0,0,.24-1.34Z"/><path d="M618.44,136.32a2.84,2.84,0,0,1,2.88-3,3,3,0,1,1-2.88,3Z"/><polygon class="cls-14" points="356 231 356 165 398 165 356 231"/></svg>
