<svg id="Layer_2" data-name="Layer 2" xmlns="http://www.w3.org/2000/svg" xmlns:xlink="http://www.w3.org/1999/xlink" width="910" height="910" viewBox="0 0 910 910"><defs><style>.cls-1{fill:#ebf4f9;}.cls-2{fill:none;stroke-width:2px;}.cls-2,.cls-5{stroke:#000;}.cls-13,.cls-2,.cls-5{stroke-miterlimit:10;}.cls-3{fill:#f8b185;}.cls-4{fill:url(#linear-gradient);}.cls-5{fill:url(#linear-gradient-2);}.cls-6{fill:url(#linear-gradient-3);}.cls-7{fill:#eb976b;}.cls-8{fill:#d49143;}.cls-9{fill:#fffeea;}.cls-10{fill:#ef8377;}.cls-11{fill:#be4e5e;}.cls-12{fill:#fff;}.cls-13{fill:#747b85;stroke:#567b85;}.cls-14{fill:#ea976b;}</style><linearGradient id="linear-gradient" x1="229.35" y1="237.92" x2="177.77" y2="50.01" gradientUnits="userSpaceOnUse"><stop offset="0" stop-color="#e7a652"/><stop offset="0.01" stop-color="#e5a350"/><stop offset="0.09" stop-color="#da9847"/><stop offset="0.2" stop-color="#d49141"/><stop offset="0.51" stop-color="#d28f40"/><stop offset="1" stop-color="#c17c2e"/></linearGradient><linearGradient id="linear-gradient-2" x1="138.29" y1="505.05" x2="151.57" y2="815.52" gradientUnits="userSpaceOnUse"><stop offset="0" stop-color="#0f0d1a"/><stop offset="1" stop-color="#00000b"/></linearGradient><linearGradient id="linear-gradient-3" x1="119.06" y1="253.46" x2="148.68" y2="218.73" gradientUnits="userSpaceOnUse"><stop offset="0" stop-color="#f8b185"/><stop offset="1" stop-color="#ea976b"/></linearGradient></defs><title>start</title><rect class="cls-1" width="910" height="910"/><line class="cls-2" x1="111.32" y1="838.67" x2="105.42" y2="868.16"/><line class="cls-2" x1="125.32" y1="838.67" x2="130.14" y2="868.57"/><path class="cls-3" d="M105.66,869.13c.94-6.92,5.16-22.08,5.16-39,.32,6.11,10.7,6.38,16,3.55a178.91,178.91,0,0,0,4,36.45C136,894.63,101.64,898.63,105.66,869.13Z"/><path d="M131.32,870.73c0,14.33-5.71,18.94-13.44,18.94s-13.56-8.65-13.56-19.91c0-7.07,5.83-5.68,13.56-5.68S131.32,865.62,131.32,870.73Z"/><line class="cls-2" x1="155.42" y1="838.99" x2="149.52" y2="868.48"/><line class="cls-2" x1="169.42" y1="838.99" x2="174.24" y2="868.89"/><path class="cls-3" d="M149.76,869.45c.94-6.92,5.16-22.08,5.16-39,.32,6.11,10.7,6.38,16,3.55a178.91,178.91,0,0,0,4,36.45C180.07,895,145.74,899,149.76,869.45Z"/><path d="M175.42,871.06c0,14.33-5.7,18.93-13.44,18.93s-13.56-8.65-13.56-19.91c0-7.06,5.83-5.67,13.56-5.67S175.42,865.94,175.42,871.06Z"/><path class="cls-4" d="M222.74,258.15c-34.41-5.33-55.45-26.19-55.45-58.48,0-14,10.67-26.63,25.58-36.52q-1.38.06-2.79.06c-39.85,0-72.16-30.61-72.16-68.36s32.31-68.36,72.16-68.36,72.16,30.61,72.16,68.36c0,4.29,1.1,8.48.3,12.55,0,3-.3,4.16-.3,8,0,13,.31,21.25,0,26.58,0,.09,0-.07,0,0h0c-.8,13-2.61,12.7-.49,34a25.5,25.5,0,0,0,18.87,22.29,51.66,51.66,0,0,0,12.76,1.46C294.14,199.67,286.54,268,222.74,258.15Z"/><path class="cls-5" d="M203.92,494.49c-.52,6.54-1.45,18-3,27-2.4,14-2.92,22.6-5.2,33.49l0,.15c-5.92,70.4-11.89,190.43-21.77,275.36-.17,1.44-1.33,2.65-3,3.55-5.29,2.83-15.67,2.56-16-3.55-5-96-12-132.52-12-213.94v-.12c-3.73-42.26-5.57-73.52-4.81-95.65a1.28,1.28,0,0,0-1.33-1.33h0a1.28,1.28,0,0,0-1.26,1.32c.51,20.68-1.22,51.56-2.58,97.66v.12c4.75,81.28-5.95,118.57-5.34,214.68a4.5,4.5,0,0,1-.57,2.29c-2.41,4.34-11.91,4.38-16.25,1.6a4.27,4.27,0,0,1-2.14-2.78C93.79,750.12,86,629.47,75.93,559.55a.49.49,0,0,1,0-.12c-.89-20.1-5.18-48-3-69.94.11-1.11,1.07,1.7,1.85,2.5,17.38,17.92,106.67,22.81,127.1,5.15C202.74,496.39,204,493.35,203.92,494.49Z"/><path class="cls-3" d="M63.25,487.71c1.08,7.49,3,14-2.36,14.88-2.21.37-4.68-3.42-6.1-8.88a40.91,40.91,0,0,1-3.08,9.17c-5.15,11-10.46,18.83-19.29,15.25-9.87-4-1.32-19.42,3.83-30.42.64-1.36,1.26-2.57,1.87-3.64l.13-.36c6.07-16.48,6.12-42.73,6-49.41a1.06,1.06,0,0,1-.36-.81c0-26.93,4.86-100.64,9.25-140.89,2.93,5.16,20,1.47,25.51-2,0,3.5,0,7,.07,10.58,0,2.46,0,4.92,0,7.35,0,8.57.35,17.13,1,25.23-14.55,29.42-16.31,77.85-18.85,94.69h0c0,12.58-4.38,34.53-.37,49.79A29.6,29.6,0,0,1,63.25,487.71Z"/><path d="M103.57,241.56l-.1,0c-3.46.59-8,1.35-12.48,2-10.35,1.49-11.8,20.45-11.87,42.25-.47-.57-.8.21,0,4.37v.45c-5.84,3.43-24.11,7.12-27.24,2a3.76,3.76,0,0,1-.26-3.11c3.86-13.46-3.21-48,41.64-48C97.07,241.49,100.48,241.27,103.57,241.56Z"/><path class="cls-3" d="M211.84,404.83c-.77,0-11.74-16.79-14.27-35.66-2-14.89-3-23.64-1.88-34.34.64-8.1,1-16.66,1-25.23,0-2.43,0-4.89,0-7.35,0-3.54.06-7.08.07-10.58,5.47,3.43,25.83,4,28.76-1.14,0,22,0,61,7,107C232.84,399.51,218.54,404.53,211.84,404.83Z"/><path d="M204.24,494.56c-15.05,21.54-119.62,15.75-131.34-5a7.57,7.57,0,0,1-1-5.05c6-38,20-75,17-97a13.82,13.82,0,0,1-.13-2.46q-1.32-5.77-2.28-11.65c-3.07-9.1-5.47-23.45-6.74-39.58-.64-8.1-1-16.66-1-25.23,0-2.43,0-4.89,0-7.35,0-3.54-.06-7.08-.07-10.58v-.45c0-1.47,0-2.93,0-4.37.06-21.8,1.42-40.76,11.11-42.25,4.15-.64,8.45-1.4,11.69-2l.1,0,.35-.07h0l4.84,0c39.47.26,32.72,3.66,62.14,0l.72.14c1.35.26,4.45.85,8.18,1.51-.95,0-1.88.05-2.77.14l.1,0c3.24.59,7.54,1.35,11.69,2a7.27,7.27,0,0,1,3.35,1.42c8.25,8.23,6.73,37,6.73,62.78,0,27.42-3.58,54.78-8.74,67.55a123,123,0,0,1-3.55,14.24,10.88,10.88,0,0,1,.29,2.21c1,36,16,61,21,94A9.47,9.47,0,0,1,204.24,494.56Z"/><path d="M227.88,294.32c-3.63,5.16-24.79,1.47-31.56-2v-.45c.94-4.16.55-4.94,0-4.37-.06-19-1.35-35.82-9.6-40.83a10.28,10.28,0,0,0-5.28-2.22c-3.41-.42-6.9-.9-10-1.35,2.64,0,5.47.07,8.52.07,52,0,43.77,34.54,48.25,48A3.33,3.33,0,0,1,227.88,294.32Z"/><path class="cls-6" d="M156.92,210.49c0,10.77-3,27,9,31,12.84,4.28-67.61,6.47-59,0,16-12,9-30,9-30C129.46,211.49,156.92,199.72,156.92,210.49Z"/><path class="cls-3" d="M218.12,142.76c-1.3,9.9-6.46,17.39-11.52,16.72-2-.27-3.77-1.83-5-4.24-7.13,35.84-41.57,63.07-64.17,63.07-22,0-57.27-27.54-64.27-63.67-1.15,2.81-2.94,4.68-5.15,5-5,.82-10.41-6.52-12-16.38s1.2-18.51,6.24-19.32c3.62-.58,7.4,3,9.85,8.75,1.44-40.85,13.49-90.49,65.74-91.24,50-.71,62.95,48.42,64.84,89.07,2.27-4.57,5.48-7.36,8.65-6.94C216.38,124.29,219.43,132.86,218.12,142.76Z"/><path class="cls-7" d="M147.06,160.09a1.27,1.27,0,0,1,1.18,2c-2.55,3.55-10.88,6.15-11.21,6.15s-12.06-3-12.06-7.63c0-2.41,5.62,0,12.06,0A99.78,99.78,0,0,0,147.06,160.09Z"/><path class="cls-8" d="M178.79,108s-14,4.26-14.75,4.62c-1.44.71-15.84,6-15.84,6-1.08-.37,6-7.45,13.34-11.1C168,104.39,178.79,108,178.79,108Z"/><path class="cls-8" d="M113.21,102.88s-14.65.63-15.44.8c-1.57.33-16.84,1.91-16.84,1.91-1-.62,7.64-5.72,15.68-7.42C103.69,96.68,113.21,102.88,113.21,102.88Z"/><path class="cls-8" d="M203.86,134.9c-2.41,3.83-1.27-14-5.37-24.42-5.72-14.59-13.16-33.3-17.06-26.74-3.25,5.48-11.83,21.83-12.12,16.55-1.42-25.36-9.08-35.2-8.79-29.93,1.4,25.09-15.05,41.43-13.38,36.46C155.27,82.56,133,65.29,133,65.29c-7.84,50.7-44.13,50.08-49.37,50.37L71.39,130.9c-18.12-12.63-6.08-95,62.9-94.79C206.85,36.31,219.2,110.57,203.86,134.9Z"/><path class="cls-3" d="M216.42,381.93c17.8-3.29,33.59-7.56,42-9.05h0c11.89-4.12,34.14-6.94,47.17-15.95a28.42,28.42,0,0,1,8-5.78c6.71-3.54,12.19-7.59,14.88-2.52,1.12,2.09-1.61,5.8-6.27,9a39.25,39.25,0,0,1,9.73.08C344.06,359.26,353.3,362,353,372c-.36,11.18-17.89,7.68-30.07,6.14-1.51-.2-2.87-.42-4.09-.68h-.38c-17.68-.67-42.5,7.88-48.78,10.16-.12.3-6.44,2.15-6.75,2.26-9.77,3.39-20.19,6.68-39.1,12"/><path class="cls-9" d="M369.62,355.35c-.43,15.27-11,5.09-41.36,7-22.33,1.41-38.39,7-40.52-7-.36-2.38,2.27-4.64,6.47-6.51,0-.34-.08-.7-.1-1.07-.18-4.1,5.11-7.75,13.35-10.09-1.62-12.64,17-8,13.16-23.27,0,0,29.9.42,31,23.51,8,2.35,13.21,5.89,12.94,9.85a14.18,14.18,0,0,1-.21,1.69C367.83,351.2,369.68,353.2,369.62,355.35Z"/><path class="cls-10" d="M158.71,187.75s0,0,0,0l-.17.15h0c-2.85,2.42-4.58,7.62-17.85,8.71-14,1.15-12.89-3.49-18.85-5.18l.41,0s-.07,0-.07-.08c0-.42,3.27-.42,8.47-.92a40.43,40.43,0,0,1,9.85.57,33.58,33.58,0,0,1,9.74-2.43c4.41-.42,7.41-1.2,8.29-.95C158.64,187.65,158.71,187.7,158.71,187.75Z"/><path class="cls-11" d="M158.78,187.75a0,0,0,0,1,0,0l-.17.14h0c-6,2.48-11.82,4.91-17.69,5.47-5.23.5-13.06-.63-19-2.32,0,0,.15.36.42.34,0,0-.07,0-.07-.08,0-.42,3.26-.42,8.47-.92a40.14,40.14,0,0,1,9.84.58,33.67,33.67,0,0,1,9.75-2.44c4.4-.42,7.41-1.2,8.29-.94C158.71,187.66,158.77,187.7,158.78,187.75Z"/><path class="cls-12" d="M152.49,133.12c1,8.29,10,8.45,18.26,7.41s15.62-2.55,14.57-10.84S182.41,115.8,170,116,151.45,124.83,152.49,133.12Z"/><ellipse class="cls-13" cx="169.33" cy="132.04" rx="10.66" ry="7.91" transform="matrix(0.99, -0.12, 0.12, 0.99, -15.14, 22.13)"/><path class="cls-14" d="M151.79,132.63c.27,2.62,7.16-7.95,15.45-9a47,47,0,0,1,15.94.76c3.36,10.66,5.09-11.49-12.28-9.54C156.5,116.47,150.91,124.32,151.79,132.63Z"/><path d="M151.84,133.91c-.09.8.42,1.43.81.53,1-2.16,4.88-4.55,11.68-8.15l.17-.1.07,0,0,0,.41-.2.16-.07a20.62,20.62,0,0,1,2.65-1.07c.24-.08.48-.17.72-.23a19.49,19.49,0,0,1,14.9,1.37.78.78,0,0,1,.28.22.71.71,0,0,1,.13.22l.69.87c.27.71,2.17,0,4.22-.81a1.28,1.28,0,0,0,.92-1.59c-.18-.46-.12.18-2.35.72a.94.94,0,0,1-1-.25c-2.71-3.68-11.71-6.66-20-3.5C157.19,125.29,152.08,131.75,151.84,133.91Z"/><path class="cls-12" d="M120.4,134.9c-1,8.29-10,8.45-18.26,7.41s-15.62-2.55-14.58-10.84,2.92-13.89,15.3-13.71S121.44,126.61,120.4,134.9Z"/><ellipse class="cls-13" cx="103.55" cy="133.83" rx="7.91" ry="10.66" transform="translate(-42.13 219.89) rotate(-82.84)"/><path class="cls-14" d="M121.1,134.41c-.28,2.63-7.16-7.94-15.45-9a47.23,47.23,0,0,0-16,.75c-3.35,10.67-5.09-11.49,12.29-9.54C116.39,118.26,122,126.1,121.1,134.41Z"/><path d="M121.05,135.69c.09.8-.42,1.43-.81.53-1-2.16-4.88-4.55-11.68-8.15a1.4,1.4,0,0,1-.17-.09l-.07,0,0,0-.41-.2-.16-.07a24,24,0,0,0-2.65-1.07l-.72-.23a19.53,19.53,0,0,0-14.9,1.37.91.91,0,0,0-.28.22.71.71,0,0,0-.13.22l-.69.87c-.27.72-2.17,0-4.22-.81a1.27,1.27,0,0,1-.92-1.59c.17-.45.12.18,2.35.73a1,1,0,0,0,1-.26c2.71-3.68,11.71-6.66,20-3.49C115.7,127.07,120.81,133.53,121.05,135.69Z"/><path class="cls-8" d="M95,109.5s14,4.27,14.75,4.62c1.44.72,15.84,6,15.84,6,1.07-.36-6-7.44-13.34-11.09C105.76,105.87,95,109.5,95,109.5Z"/><rect class="cls-12" x="347" y="31" width="543" height="166" rx="12"/><path d="M381.48,65.86h4.17v15.6h.15c.86-1.25,1.73-2.4,2.54-3.46l9.89-12.14h5.19L391.7,79.59l12.63,18.62h-4.95L388.73,82.32l-3.08,3.56V98.21h-4.17Z"/><path d="M421,98.21l-.33-2.93h-.15a8.63,8.63,0,0,1-7.1,3.46c-4.71,0-7.11-3.31-7.11-6.67,0-5.62,5-8.69,14-8.64V83c0-1.92-.53-5.38-5.28-5.38a11.57,11.57,0,0,0-6.05,1.73l-1-2.78a14.43,14.43,0,0,1,7.64-2.07c7.1,0,8.83,4.85,8.83,9.51v8.68a33.54,33.54,0,0,0,.38,5.57Zm-.62-11.85c-4.61-.1-9.84.72-9.84,5.23a3.74,3.74,0,0,0,4,4,5.78,5.78,0,0,0,5.62-3.89,4.51,4.51,0,0,0,.24-1.34Z"/><path d="M431.25,81.27c0-2.4,0-4.37-.19-6.29h3.75l.24,3.84h.09a8.54,8.54,0,0,1,7.68-4.37c3.22,0,8.21,1.92,8.21,9.89V98.21h-4.22V84.82c0-3.74-1.4-6.86-5.38-6.86a6,6,0,0,0-5.66,4.32,5.78,5.78,0,0,0-.29,2v14h-4.23Z"/><path d="M488.13,64.13V92.21c0,2.07.05,4.42.2,6h-3.8l-.19-4h-.09a8.6,8.6,0,0,1-7.92,4.56c-5.62,0-9.94-4.75-9.94-11.81-.05-7.73,4.75-12.48,10.42-12.48,3.55,0,5.95,1.68,7,3.55h.1V64.13Zm-4.22,20.31a7.7,7.7,0,0,0-.19-1.78,6.22,6.22,0,0,0-6.1-4.9c-4.37,0-7,3.84-7,9,0,4.7,2.3,8.59,6.87,8.59a6.35,6.35,0,0,0,6.19-5,7.48,7.48,0,0,0,.19-1.82Z"/><path d="M514.58,91.88c0,2.4,0,4.51.19,6.33H511l-.24-3.79h-.1A8.74,8.74,0,0,1,503,98.74c-3.65,0-8-2-8-10.18V75h4.22V87.84c0,4.42,1.34,7.4,5.19,7.4A6.09,6.09,0,0,0,510,91.4a6.24,6.24,0,0,0,.39-2.16V75h4.22Z"/><path d="M535.94,85.64h.1c.57-.82,1.39-1.83,2.06-2.64l6.82-8H550l-9,9.55,10.22,13.68h-5.13l-8-11.13-2.16,2.4v8.73h-4.18V64.13h4.18Z"/><path d="M555.09,64.13h4.23V98.21h-4.23Z"/><path d="M579.28,98.21,579,95.28h-.15a8.63,8.63,0,0,1-7.1,3.46c-4.71,0-7.11-3.31-7.11-6.67,0-5.62,5-8.69,14-8.64V83c0-1.92-.52-5.38-5.28-5.38a11.57,11.57,0,0,0-6,1.73l-1-2.78a14.43,14.43,0,0,1,7.64-2.07c7.1,0,8.83,4.85,8.83,9.51v8.68a33.54,33.54,0,0,0,.38,5.57Zm-.62-11.85c-4.61-.1-9.84.72-9.84,5.23a3.74,3.74,0,0,0,4,4,5.78,5.78,0,0,0,5.62-3.89,4.51,4.51,0,0,0,.24-1.34Z"/><path d="M589.55,82.23c0-2.74,0-5.09-.19-7.25h3.7l.14,4.56h.2a7,7,0,0,1,6.43-5.09,4.88,4.88,0,0,1,1.2.14v4a6.16,6.16,0,0,0-1.44-.14c-3,0-5.09,2.25-5.67,5.42a12.66,12.66,0,0,0-.19,2V98.21h-4.18Z"/><path d="M607.12,87.36c.1,5.72,3.75,8.07,8,8.07a15.26,15.26,0,0,0,6.43-1.2l.72,3a18.8,18.8,0,0,1-7.72,1.44c-7.16,0-11.43-4.7-11.43-11.71s4.13-12.53,10.9-12.53c7.58,0,9.6,6.67,9.6,11a15.19,15.19,0,0,1-.15,2Zm12.39-3c0-2.69-1.11-6.86-5.86-6.86-4.27,0-6.14,3.93-6.48,6.86Z"/><path d="M639.43,98.21v-20h-3.27V75h3.27v-1.1c0-3.27.72-6.25,2.68-8.12a8.13,8.13,0,0,1,5.67-2.16,9.93,9.93,0,0,1,3.6.67l-.58,3.27a6.27,6.27,0,0,0-2.69-.53c-3.6,0-4.51,3.17-4.51,6.72V75h5.62V78.2H643.6v20Z"/><path d="M665.87,98.21l-.33-2.93h-.15a8.63,8.63,0,0,1-7.1,3.46c-4.71,0-7.11-3.31-7.11-6.67,0-5.62,5-8.69,14-8.64V83c0-1.92-.52-5.38-5.28-5.38a11.51,11.51,0,0,0-6,1.73l-1-2.78a14.39,14.39,0,0,1,7.63-2.07c7.1,0,8.83,4.85,8.83,9.51v8.68a33.54,33.54,0,0,0,.38,5.57Zm-.62-11.85c-4.61-.1-9.84.72-9.84,5.23a3.74,3.74,0,0,0,4,4A5.78,5.78,0,0,0,665,91.73a4.51,4.51,0,0,0,.24-1.34Z"/><path d="M676.14,82.23c0-2.74,0-5.09-.19-7.25h3.7l.14,4.56h.2a7,7,0,0,1,6.43-5.09,4.88,4.88,0,0,1,1.2.14v4a6.16,6.16,0,0,0-1.44-.14c-3,0-5.09,2.25-5.67,5.42a12.66,12.66,0,0,0-.19,2V98.21h-4.18Z"/><path d="M698.08,68.31V75h6V78.2h-6V90.72c0,2.88.82,4.52,3.17,4.52A9.61,9.61,0,0,0,703.7,95l.19,3.17a10.49,10.49,0,0,1-3.74.57,5.88,5.88,0,0,1-4.57-1.77c-1.2-1.25-1.63-3.32-1.63-6V78.2h-3.6V75H694V69.41Z"/><path d="M724.14,68.31V75h6.05V78.2h-6.05V90.72c0,2.88.82,4.52,3.17,4.52a9.55,9.55,0,0,0,2.45-.29l.19,3.17a10.45,10.45,0,0,1-3.74.57,5.86,5.86,0,0,1-4.56-1.77c-1.2-1.25-1.63-3.32-1.63-6V78.2h-3.6V75H720V69.41Z"/><path d="M737,87.36c.09,5.72,3.74,8.07,8,8.07a15.3,15.3,0,0,0,6.43-1.2l.72,3a18.85,18.85,0,0,1-7.73,1.44C737.25,98.69,733,94,733,87s4.12-12.53,10.89-12.53c7.59,0,9.6,6.67,9.6,11a15.58,15.58,0,0,1-.14,2Zm12.38-3c.05-2.69-1.1-6.86-5.85-6.86-4.28,0-6.15,3.93-6.48,6.86Z"/><path d="M758.13,93.89a11,11,0,0,0,5.57,1.68c3.07,0,4.51-1.53,4.51-3.45S767,89,763.89,87.84c-4.18-1.48-6.15-3.79-6.15-6.57,0-3.75,3-6.82,8-6.82a11.55,11.55,0,0,1,5.71,1.44L770.42,79a9.16,9.16,0,0,0-4.76-1.34c-2.49,0-3.88,1.44-3.88,3.17,0,1.92,1.39,2.78,4.41,3.93,4,1.54,6.1,3.56,6.1,7,0,4.08-3.17,7-8.69,7a13.26,13.26,0,0,1-6.53-1.58Z"/><path d="M782.8,68.31V75h6.05V78.2H782.8V90.72c0,2.88.82,4.52,3.17,4.52a9.61,9.61,0,0,0,2.45-.29l.19,3.17a10.52,10.52,0,0,1-3.75.57,5.87,5.87,0,0,1-4.56-1.77c-1.2-1.25-1.63-3.32-1.63-6V78.2h-3.6V75h3.6V69.41Z"/><path d="M795.66,87.36c.1,5.72,3.75,8.07,8,8.07a15.26,15.26,0,0,0,6.43-1.2l.72,3a18.8,18.8,0,0,1-7.72,1.44c-7.16,0-11.43-4.7-11.43-11.71s4.13-12.53,10.9-12.53c7.58,0,9.6,6.67,9.6,11a15.19,15.19,0,0,1-.15,2Zm12.39-3c.05-2.69-1.11-6.86-5.86-6.86-4.27,0-6.14,3.93-6.48,6.86Z"/><path d="M817.36,81.27c0-2.4-.05-4.37-.19-6.29h3.74l.24,3.84h.1a8.54,8.54,0,0,1,7.68-4.37c3.21,0,8.21,1.92,8.21,9.89V98.21h-4.23V84.82c0-3.74-1.39-6.86-5.37-6.86a6.2,6.2,0,0,0-6,6.28v14h-4.22Z"/><path d="M847.26,89l-.09-1.24c-.29-2.6.57-5.43,3-8.31,2.16-2.54,3.36-4.42,3.36-6.58,0-2.44-1.53-4.08-4.56-4.12a8.54,8.54,0,0,0-4.85,1.48l-1.15-3a12.62,12.62,0,0,1,6.87-1.92c5.52,0,8,3.41,8,7.06,0,3.26-1.82,5.61-4.12,8.35-2.12,2.5-2.88,4.61-2.74,7.06L851,89Zm-1,6.72a2.84,2.84,0,0,1,2.88-3,3,3,0,1,1-2.88,3Z"/><polygon class="cls-12" points="299.12 205.29 350.58 163.96 376.88 196.71 299.12 205.29"/></svg>
